<svg width="1499" height="1335" viewBox="0 0 1499 1335" fill="none" xmlns="http://www.w3.org/2000/svg">
<g opacity="0.3" filter="url(#filter0_f_16656_179)">
<path fill-rule="evenodd" clip-rule="evenodd" d="M759.605 1117.09C739.655 1179.76 693.993 1227.7 652.636 1278.81C617.004 1322.85 579.03 1362.1 533.784 1396.15C483.387 1434.09 435.859 1486.88 372.859 1489.39C309.657 1491.91 256.579 1445.03 204.365 1409.28C155.273 1375.67 120.317 1329.37 77.9988 1287.53C20.0795 1230.27 -79.8774 1197.79 -91.2073 1117.09C-102.16 1039.07 -22.6521 978.518 25.9126 916.532C68.9543 861.595 116.997 812.936 176.11 775.89C236.809 737.85 302.01 688.678 372.859 699.101C443.593 709.506 473.669 799.819 538.84 829.249C614.817 863.559 728.053 816.235 778.816 882.421C827.386 945.747 783.821 1041.01 759.605 1117.09Z" fill="#1DA1F2"/>
</g>
<defs>
<filter id="filter0_f_16656_179" x="-789.574" y="0.338379" width="2287.72" height="2186.49" filterUnits="userSpaceOnUse" color-interpolation-filters="sRGB">
<feFlood flood-opacity="0" result="BackgroundImageFix"/>
<feBlend mode="normal" in="SourceGraphic" in2="BackgroundImageFix" result="shape"/>
<feGaussianBlur stdDeviation="348.672" result="effect1_foregroundBlur_16656_179"/>
</filter>
</defs>
</svg>
