<svg width="1562" height="2069" fill="none" xmlns="http://www.w3.org/2000/svg"><g opacity=".3" filter="url(#a)"><path fill-rule="evenodd" clip-rule="evenodd" d="M1712.9 1069.44c-29.72 93.35-97.74 164.77-159.34 240.9-53.08 65.6-109.65 124.07-177.05 174.8-75.07 56.5-145.87 135.14-239.71 138.88-94.15 3.75-173.211-66.08-250.99-119.33-73.128-50.06-125.198-119.04-188.235-181.36-86.277-85.29-235.173-133.68-252.05-253.89-16.316-116.216 102.12-206.414 174.462-298.75 64.115-81.834 135.68-154.317 223.734-209.5 90.418-56.665 187.539-129.911 293.079-114.386 105.36 15.5 150.17 150.031 247.24 193.87 113.18 51.107 281.86-19.386 357.47 79.205 72.35 94.331 7.46 236.237-28.61 349.561Z" fill="url(#b)" fill-opacity=".5"/></g><defs><linearGradient id="b" x1="1774.27" y1="1034.43" x2="444" y2="1034.43" gradientUnits="userSpaceOnUse"><stop stop-color="#FF80E6"/><stop offset="1" stop-color="#FFA6ED" stop-opacity="0"/></linearGradient><filter id="a" x="0" y=".691" width="2218.27" height="2067.47" filterUnits="userSpaceOnUse" color-interpolation-filters="sRGB"><feFlood flood-opacity="0" result="BackgroundImageFix"/><feBlend in="SourceGraphic" in2="BackgroundImageFix" result="shape"/><feGaussianBlur stdDeviation="222" result="effect1_foregroundBlur_16656_166"/></filter></defs></svg>