<svg width="1005" height="1449" fill="none" xmlns="http://www.w3.org/2000/svg"><g opacity=".3" filter="url(#a)"><path fill-rule="evenodd" clip-rule="evenodd" d="M479.091 676.547c-11.036 34.668-36.295 61.19-59.172 89.462-19.711 24.358-40.717 46.073-65.745 64.911-27.878 20.982-54.17 50.184-89.019 51.573-34.961 1.393-64.322-24.539-93.205-44.312-27.157-18.591-46.493-44.207-69.902-67.349-32.04-31.673-87.332-49.644-93.6-94.285-6.059-43.155 37.923-76.651 64.787-110.94 23.81-30.389 50.386-57.306 83.085-77.798 33.577-21.043 69.644-48.243 108.835-42.478 39.128 5.756 55.765 55.715 91.815 71.994 42.029 18.979 104.667-7.199 132.748 29.413 26.867 35.03 2.768 87.727-10.627 129.809Z" fill="#CDE9FF"/></g><g opacity=".3" filter="url(#b)"><path fill-rule="evenodd" clip-rule="evenodd" d="M538.091 798.547c-11.036 34.669-36.295 61.19-59.172 89.462-19.711 24.358-40.717 46.073-65.745 64.911-27.878 20.982-54.17 50.18-89.019 51.57-34.962 1.4-64.322-24.536-93.206-44.309-27.156-18.591-46.492-44.207-69.901-67.349-32.04-31.673-87.333-49.644-93.6-94.285-6.059-43.155 37.923-76.651 64.787-110.94 23.809-30.389 50.385-57.306 83.085-77.798 33.577-21.043 69.644-48.243 108.835-42.478 39.128 5.756 55.765 55.715 91.815 71.994 42.028 18.979 104.667-7.199 132.748 29.413 26.867 35.03 2.768 87.728-10.627 129.809Z" fill="#99D4ED"/></g><defs><filter id="a" x="-436.118" y=".546" width="1382" height="1326" filterUnits="userSpaceOnUse" color-interpolation-filters="sRGB"><feFlood flood-opacity="0" result="BackgroundImageFix"/><feBlend in="SourceGraphic" in2="BackgroundImageFix" result="shape"/><feGaussianBlur stdDeviation="222" result="effect1_foregroundBlur_16656_171"/></filter><filter id="b" x="-377.118" y="122.547" width="1382" height="1326" filterUnits="userSpaceOnUse" color-interpolation-filters="sRGB"><feFlood flood-opacity="0" result="BackgroundImageFix"/><feBlend in="SourceGraphic" in2="BackgroundImageFix" result="shape"/><feGaussianBlur stdDeviation="222" result="effect1_foregroundBlur_16656_171"/></filter></defs></svg>