<svg width="1127" height="1591" viewBox="0 0 1127 1591" fill="none" xmlns="http://www.w3.org/2000/svg">
<g style="mix-blend-mode:darken" opacity="0.6">
<g opacity="0.3" filter="url(#filter0_f_16656_168)">
<path fill-rule="evenodd" clip-rule="evenodd" d="M1035 734.848C1021.16 778.307 989.501 811.553 960.822 846.994C936.113 877.529 909.781 904.75 878.406 928.365C843.459 954.668 810.501 991.274 766.815 993.015C722.988 994.762 686.182 962.254 649.975 937.467C615.932 914.162 591.693 882.051 562.348 853.041C522.184 813.336 452.871 790.808 445.014 734.848C437.419 680.749 492.553 638.76 526.229 595.776C556.076 557.681 589.391 523.939 630.381 498.251C672.473 471.872 717.685 437.775 766.815 445.002C815.864 452.217 836.72 514.844 881.912 535.252C934.597 559.043 1013.12 526.227 1048.32 572.123C1082 616.036 1051.79 682.095 1035 734.848Z" fill="#CDE9FF"/>
</g>
<g opacity="0.3" filter="url(#filter1_f_16656_168)">
<path fill-rule="evenodd" clip-rule="evenodd" d="M1108.96 887.783C1095.12 931.243 1063.46 964.489 1034.78 999.93C1010.07 1030.47 983.741 1057.69 952.367 1081.3C917.419 1107.6 884.461 1144.21 840.775 1145.95C796.948 1147.7 760.143 1115.19 723.935 1090.4C689.893 1067.1 665.654 1034.99 636.308 1005.98C596.145 966.272 526.831 943.744 518.975 887.783C511.38 833.685 566.513 791.696 600.19 748.712C630.037 710.617 663.351 676.875 704.342 651.186C746.433 624.808 791.646 590.71 840.775 597.938C889.825 605.153 910.68 667.78 955.872 688.187C1008.56 711.979 1087.08 679.163 1122.28 725.059C1155.96 768.972 1125.75 835.031 1108.96 887.783Z" fill="url(#paint0_linear_16656_168)" fill-opacity="0.7"/>
</g>
</g>
<defs>
<filter id="filter0_f_16656_168" x="0.304443" y="0.0183105" width="1507.26" height="1437.06" filterUnits="userSpaceOnUse" color-interpolation-filters="sRGB">
<feFlood flood-opacity="0" result="BackgroundImageFix"/>
<feBlend mode="normal" in="SourceGraphic" in2="BackgroundImageFix" result="shape"/>
<feGaussianBlur stdDeviation="222" result="effect1_foregroundBlur_16656_168"/>
</filter>
<filter id="filter1_f_16656_168" x="74.2651" y="152.954" width="1507.26" height="1437.06" filterUnits="userSpaceOnUse" color-interpolation-filters="sRGB">
<feFlood flood-opacity="0" result="BackgroundImageFix"/>
<feBlend mode="normal" in="SourceGraphic" in2="BackgroundImageFix" result="shape"/>
<feGaussianBlur stdDeviation="222" result="effect1_foregroundBlur_16656_168"/>
</filter>
<linearGradient id="paint0_linear_16656_168" x1="848.539" y1="596.954" x2="846.419" y2="1132.86" gradientUnits="userSpaceOnUse">
<stop stop-color="#AA80FF"/>
<stop offset="1" stop-color="#A071FF" stop-opacity="0.65"/>
</linearGradient>
</defs>
</svg>
