<svg width="1240" height="1324" fill="none" xmlns="http://www.w3.org/2000/svg"><g opacity=".3" filter="url(#a)"><path fill-rule="evenodd" clip-rule="evenodd" d="M758.982 548.089c-17.775 55.841-58.459 98.559-95.308 144.097-31.749 39.235-65.584 74.211-105.897 104.553-44.903 33.797-87.251 80.833-143.383 83.07-56.314 2.243-103.606-39.526-150.128-71.374-43.741-29.945-74.887-71.205-112.592-108.48C100.068 648.939 11.007 619.993.912 548.089c-9.76-69.511 61.082-123.463 104.353-178.693 38.35-48.948 81.157-92.303 133.825-125.311 54.084-33.893 112.177-77.705 175.304-68.419 63.023 9.271 89.821 89.74 147.887 115.962 67.696 30.57 168.589-11.595 213.818 47.376 43.276 56.424 4.46 141.304-17.117 209.085Z" fill="url(#b)" fill-opacity=".5"/></g><defs><linearGradient id="b" x1="795.693" y1="527.149" x2="0" y2="527.149" gradientUnits="userSpaceOnUse"><stop stop-color="#F8C14F"/><stop offset="1" stop-color="#FFA6ED" stop-opacity="0"/></linearGradient><filter id="a" x="-444" y="-269.598" width="1683.69" height="1593.49" filterUnits="userSpaceOnUse" color-interpolation-filters="sRGB"><feFlood flood-opacity="0" result="BackgroundImageFix"/><feBlend in="SourceGraphic" in2="BackgroundImageFix" result="shape"/><feGaussianBlur stdDeviation="222" result="effect1_foregroundBlur_16656_163"/></filter></defs></svg>