<svg width="1018" height="1063" fill="none" xmlns="http://www.w3.org/2000/svg"><g opacity=".3" filter="url(#a)"><path fill-rule="evenodd" clip-rule="evenodd" d="M537.138 286.318c-17.776 55.841-58.46 98.559-95.309 144.097-31.748 39.235-65.583 74.211-105.896 104.553-44.904 33.797-87.252 80.833-143.384 83.07-56.313 2.243-103.605-39.526-150.128-71.374-43.74-29.945-74.886-71.205-112.592-108.48-51.606-51.016-140.667-79.962-150.762-151.866-9.759-69.511 61.083-123.463 104.354-178.693 38.35-48.948 81.156-92.303 133.825-125.31 54.083-33.894 112.177-77.706 175.303-68.42 63.023 9.271 89.821 89.74 147.888 115.962 67.695 30.57 168.588-11.595 213.818 47.376 43.276 56.424 4.459 141.304-17.117 209.085Z" fill="#B1DEFF"/></g><defs><filter id="a" x="-665.845" y="-531.369" width="1683.69" height="1593.49" filterUnits="userSpaceOnUse" color-interpolation-filters="sRGB"><feFlood flood-opacity="0" result="BackgroundImageFix"/><feBlend in="SourceGraphic" in2="BackgroundImageFix" result="shape"/><feGaussianBlur stdDeviation="222" result="effect1_foregroundBlur_16656_164"/></filter></defs></svg>