<svg width="1180" height="999" fill="none" xmlns="http://www.w3.org/2000/svg"><g opacity=".3" filter="url(#a)"><path fill-rule="evenodd" clip-rule="evenodd" d="M1203.98 222.857c-17.78 55.84-58.46 98.558-95.31 144.097-31.75 39.234-65.58 74.21-105.9 104.552-44.901 33.797-87.249 80.833-143.381 83.07-56.313 2.244-103.605-39.525-150.127-71.374-43.741-29.944-74.887-71.204-112.592-108.479-51.606-51.017-140.667-79.963-150.762-151.866-9.759-69.512 61.082-123.463 104.353-178.693 38.35-48.949 81.156-92.304 133.825-125.311 54.083-33.894 112.177-77.706 175.303-68.42 63.024 9.271 89.821 89.74 147.891 115.962 67.69 30.57 168.59-11.595 213.82 47.376 43.27 56.424 4.45 141.304-17.12 209.086Z" fill="url(#b)"/></g><defs><linearGradient id="b" x1="1240.69" y1="201.916" x2="444.996" y2="201.916" gradientUnits="userSpaceOnUse"><stop stop-color="#F1F9FF"/><stop offset="1" stop-color="#FFA6ED" stop-opacity="0"/></linearGradient><filter id="a" x=".996" y="-594.83" width="1683.69" height="1593.49" filterUnits="userSpaceOnUse" color-interpolation-filters="sRGB"><feFlood flood-opacity="0" result="BackgroundImageFix"/><feBlend in="SourceGraphic" in2="BackgroundImageFix" result="shape"/><feGaussianBlur stdDeviation="222" result="effect1_foregroundBlur_16656_148"/></filter></defs></svg>