<svg width="1094" height="1306" fill="none" xmlns="http://www.w3.org/2000/svg"><g opacity=".3" filter="url(#a)"><path fill-rule="evenodd" clip-rule="evenodd" d="M1042.24 600.635c-13.99 43.964-46.024 77.596-75.035 113.449-24.996 30.89-51.635 58.427-83.374 82.315-35.353 26.609-68.693 63.641-112.887 65.402-44.336 1.766-81.569-31.119-118.196-56.193-34.438-23.576-58.959-56.06-88.645-85.407-40.63-40.166-110.748-62.955-118.696-119.566-7.683-54.726 48.091-97.203 82.158-140.686 30.193-38.538 63.895-72.671 105.362-98.658 42.58-26.685 88.317-61.178 138.017-53.867 49.619 7.299 70.717 70.653 116.434 91.297 53.297 24.068 132.732-9.129 168.342 37.3 34.07 44.423 3.51 111.249-13.48 164.614Z" fill="url(#b)"/></g><defs><linearGradient id="b" x1="778.799" y1="306.429" x2="776.654" y2="848.559" gradientUnits="userSpaceOnUse"><stop stop-color="#47C2FF"/><stop offset="1" stop-color="#63CBFE" stop-opacity=".65"/></linearGradient><filter id="a" x=".689" y="-137.571" width="1514.46" height="1443.44" filterUnits="userSpaceOnUse" color-interpolation-filters="sRGB"><feFlood flood-opacity="0" result="BackgroundImageFix"/><feBlend in="SourceGraphic" in2="BackgroundImageFix" result="shape"/><feGaussianBlur stdDeviation="222" result="effect1_foregroundBlur_16656_147"/></filter></defs></svg>