<svg width="1920" height="2258" fill="none" xmlns="http://www.w3.org/2000/svg"><g opacity=".3" filter="url(#a)"><path fill-rule="evenodd" clip-rule="evenodd" d="M1401.43 1155.06c-21.72 68.26-71.45 120.48-116.5 176.14-38.8 47.96-80.16 90.71-129.44 127.8-54.89 41.31-106.65 98.8-175.264 101.54-68.834 2.74-126.641-48.31-183.508-87.24-53.467-36.61-91.537-87.04-137.626-132.6-63.081-62.36-171.944-97.75-184.284-185.64-11.929-84.96 74.664-150.91 127.556-218.422 46.877-59.832 99.201-112.827 163.581-153.174 66.108-41.43 137.119-94.982 214.281-83.632C1057.26 711.165 1090.02 809.526 1161 841.578c82.74 37.367 206.07-14.173 261.36 57.91 52.89 68.969 5.45 172.722-20.93 255.572Z" fill="#CDE9FF"/></g><defs><filter id="a" x="-223.65" y=".944" width="2367.3" height="2257.04" filterUnits="userSpaceOnUse" color-interpolation-filters="sRGB"><feFlood flood-opacity="0" result="BackgroundImageFix"/><feBlend in="SourceGraphic" in2="BackgroundImageFix" result="shape"/><feGaussianBlur stdDeviation="348.672" result="effect1_foregroundBlur_16656_174"/></filter></defs></svg>