<svg width="1018" height="1063" viewBox="0 0 1018 1063" fill="none" xmlns="http://www.w3.org/2000/svg">
<g opacity="0.3" filter="url(#filter0_f_16656_164)">
<path fill-rule="evenodd" clip-rule="evenodd" d="M537.138 286.318C519.362 342.159 478.678 384.877 441.829 430.415C410.081 469.65 376.246 504.626 335.933 534.968C291.029 568.765 248.681 615.801 192.549 618.038C136.236 620.281 88.9438 578.512 42.4212 546.664C-1.31979 516.719 -32.4651 475.459 -70.1707 438.184C-121.777 387.168 -210.838 358.222 -220.933 286.318C-230.692 216.807 -159.85 162.855 -116.579 107.625C-78.2294 58.6768 -35.423 15.322 17.2458 -17.6856C71.329 -51.5794 129.423 -95.391 192.549 -86.1048C255.572 -76.8339 282.37 3.63539 340.437 29.857C408.132 60.4266 509.025 18.2617 554.255 77.2329C597.531 133.657 558.714 218.537 537.138 286.318Z" fill="#B1DEFF"/>
</g>
<defs>
<filter id="filter0_f_16656_164" x="-665.845" y="-531.369" width="1683.69" height="1593.49" filterUnits="userSpaceOnUse" color-interpolation-filters="sRGB">
<feFlood flood-opacity="0" result="BackgroundImageFix"/>
<feBlend mode="normal" in="SourceGraphic" in2="BackgroundImageFix" result="shape"/>
<feGaussianBlur stdDeviation="222" result="effect1_foregroundBlur_16656_164"/>
</filter>
</defs>
</svg>
