<svg width="1127" height="1591" fill="none" xmlns="http://www.w3.org/2000/svg"><g style="mix-blend-mode:darken" opacity=".6"><g opacity=".3" filter="url(#a)"><path fill-rule="evenodd" clip-rule="evenodd" d="M1035 734.848c-13.84 43.459-45.499 76.705-74.178 112.146-24.709 30.535-51.041 57.756-82.416 81.371-34.947 26.303-67.905 62.909-111.591 64.65-43.827 1.747-80.633-30.761-116.84-55.548-34.043-23.305-58.282-55.416-87.627-84.426-40.164-39.705-109.477-62.233-117.334-118.193-7.595-54.099 47.539-96.088 81.215-139.072 29.847-38.095 63.162-71.837 104.152-97.525 42.092-26.379 87.304-60.476 136.434-53.249 49.049 7.215 69.905 69.842 115.097 90.25 52.685 23.791 131.208-9.025 166.408 36.871 33.68 43.913 3.47 109.972-13.32 162.725Z" fill="#CDE9FF"/></g><g opacity=".3" filter="url(#b)"><path fill-rule="evenodd" clip-rule="evenodd" d="M1108.96 887.783c-13.84 43.46-45.5 76.706-74.18 112.147-24.71 30.54-51.039 57.76-82.413 81.37-34.948 26.3-67.906 62.91-111.592 64.65-43.827 1.75-80.632-30.76-116.84-55.55-34.042-23.3-58.281-55.41-87.627-84.42-40.163-39.708-109.477-62.236-117.333-118.197-7.595-54.098 47.538-96.087 81.215-139.071 29.847-38.095 63.161-71.837 104.152-97.526 42.091-26.378 87.304-60.476 136.433-53.248 49.05 7.215 69.905 69.842 115.097 90.249 52.688 23.792 131.208-9.024 166.408 36.872 33.68 43.913 3.47 109.972-13.32 162.724Z" fill="url(#c)" fill-opacity=".7"/></g></g><defs><filter id="a" x=".304" y=".018" width="1507.26" height="1437.06" filterUnits="userSpaceOnUse" color-interpolation-filters="sRGB"><feFlood flood-opacity="0" result="BackgroundImageFix"/><feBlend in="SourceGraphic" in2="BackgroundImageFix" result="shape"/><feGaussianBlur stdDeviation="222" result="effect1_foregroundBlur_16656_168"/></filter><filter id="b" x="74.265" y="152.954" width="1507.26" height="1437.06" filterUnits="userSpaceOnUse" color-interpolation-filters="sRGB"><feFlood flood-opacity="0" result="BackgroundImageFix"/><feBlend in="SourceGraphic" in2="BackgroundImageFix" result="shape"/><feGaussianBlur stdDeviation="222" result="effect1_foregroundBlur_16656_168"/></filter><linearGradient id="c" x1="848.539" y1="596.954" x2="846.419" y2="1132.86" gradientUnits="userSpaceOnUse"><stop stop-color="#AA80FF"/><stop offset="1" stop-color="#A071FF" stop-opacity=".65"/></linearGradient></defs></svg>