<svg width="1499" height="1335" fill="none" xmlns="http://www.w3.org/2000/svg"><g opacity=".3" filter="url(#a)"><path fill-rule="evenodd" clip-rule="evenodd" d="M759.605 1117.09c-19.95 62.67-65.612 110.61-106.969 161.72-35.632 44.04-73.606 83.29-118.852 117.34-50.397 37.94-97.925 90.73-160.925 93.24-63.202 2.52-116.28-44.36-168.494-80.11-49.092-33.61-84.048-79.91-126.366-121.75-57.92-57.26-157.876-89.74-169.206-170.44-10.953-78.02 68.555-138.572 117.12-200.558 43.041-54.937 91.084-103.596 150.197-140.642 60.699-38.04 125.9-87.212 196.749-76.789 70.734 10.405 100.81 100.718 165.981 130.148 75.977 34.31 189.213-13.014 239.976 53.172 48.57 63.326 5.005 158.589-19.211 234.669Z" fill="#1DA1F2"/></g><defs><filter id="a" x="-789.574" y=".338" width="2287.72" height="2186.49" filterUnits="userSpaceOnUse" color-interpolation-filters="sRGB"><feFlood flood-opacity="0" result="BackgroundImageFix"/><feBlend in="SourceGraphic" in2="BackgroundImageFix" result="shape"/><feGaussianBlur stdDeviation="348.672" result="effect1_foregroundBlur_16656_179"/></filter></defs></svg>