<svg width="1254" height="1795" viewBox="0 0 1254 1795" fill="none" xmlns="http://www.w3.org/2000/svg">
<g opacity="0.3" filter="url(#filter0_f_16656_178)">
<path fill-rule="evenodd" clip-rule="evenodd" d="M762.801 924.466C739.968 996.195 687.708 1051.07 640.373 1109.56C599.592 1159.96 556.13 1204.89 504.346 1243.86C446.665 1287.28 392.268 1347.7 320.165 1350.57C247.828 1353.45 187.08 1299.8 127.32 1258.89C71.1331 1220.42 31.126 1167.42 -17.3083 1119.54C-83.5979 1054.01 -198 1016.83 -210.967 924.465C-223.503 835.176 -132.505 765.873 -76.9217 694.928C-27.6599 632.052 27.3263 576.361 94.9814 533.962C164.453 490.424 239.076 434.147 320.165 446.075C401.12 457.984 435.543 561.35 510.132 595.032C597.089 634.3 726.689 580.138 784.788 655.888C840.378 728.367 790.517 837.398 762.801 924.466Z" fill="url(#paint0_linear_16656_178)" fill-opacity="0.5"/>
</g>
<defs>
<filter id="filter0_f_16656_178" x="-656.139" y="0.45166" width="1910.1" height="1794.23" filterUnits="userSpaceOnUse" color-interpolation-filters="sRGB">
<feFlood flood-opacity="0" result="BackgroundImageFix"/>
<feBlend mode="normal" in="SourceGraphic" in2="BackgroundImageFix" result="shape"/>
<feGaussianBlur stdDeviation="222" result="effect1_foregroundBlur_16656_178"/>
</filter>
<linearGradient id="paint0_linear_16656_178" x1="809.957" y1="897.567" x2="-212.139" y2="897.567" gradientUnits="userSpaceOnUse">
<stop stop-color="#F8C14F"/>
<stop offset="1" stop-color="#FFA6ED" stop-opacity="0"/>
</linearGradient>
</defs>
</svg>
