<svg width="1592" height="2258" fill="none" xmlns="http://www.w3.org/2000/svg"><g opacity=".3" filter="url(#a)"><path fill-rule="evenodd" clip-rule="evenodd" d="M1626.03 1154.48c-21.73 68.25-71.46 120.47-116.5 176.13-38.81 47.96-80.17 90.71-129.45 127.8-54.88 41.31-106.65 98.81-175.26 101.54-68.83 2.74-126.64-48.31-183.51-87.24-53.464-36.6-91.535-87.04-137.624-132.6-63.08-62.36-171.944-97.74-184.284-185.63-11.928-84.97 74.664-150.92 127.556-218.429 46.877-59.833 99.202-112.827 163.581-153.174 66.111-41.43 137.121-94.983 214.281-83.632 77.04 11.332 109.79 109.694 180.77 141.746 82.75 37.366 206.07-14.174 261.36 57.909 52.9 68.97 5.45 172.72-20.92 255.58Z" fill="#CDE9FF"/></g><defs><filter id="a" x=".944" y=".356" width="2367.3" height="2257.04" filterUnits="userSpaceOnUse" color-interpolation-filters="sRGB"><feFlood flood-opacity="0" result="BackgroundImageFix"/><feBlend in="SourceGraphic" in2="BackgroundImageFix" result="shape"/><feGaussianBlur stdDeviation="348.672" result="effect1_foregroundBlur_16656_176"/></filter></defs></svg>