<svg width="1837" height="1523" fill="none" xmlns="http://www.w3.org/2000/svg"><g opacity=".3" filter="url(#a)"><path fill-rule="evenodd" clip-rule="evenodd" d="M1713.76 1069.72c-29.72 93.36-97.73 164.77-159.34 240.91-53.08 65.59-109.64 124.07-177.04 174.79-75.07 56.51-145.87 135.14-239.72 138.88-94.14 3.75-173.207-66.08-250.985-119.32-73.129-50.07-125.198-119.05-188.236-181.36-86.277-85.3-235.173-133.69-252.05-253.9-16.316-116.211 102.12-206.41 174.462-298.745 64.115-81.835 135.68-154.317 223.734-209.5 90.419-56.666 187.545-129.911 293.075-114.387 105.37 15.5 150.17 150.032 247.25 193.87 113.17 51.108 281.85-19.385 357.47 79.205 72.35 94.332 7.45 236.237-28.62 349.557Z" fill="url(#b)" fill-opacity=".5"/></g><defs><linearGradient id="b" x1="1775.14" y1="1034.71" x2="444.864" y2="1034.71" gradientUnits="userSpaceOnUse"><stop stop-color="#FF80E6"/><stop offset="1" stop-color="#FFA6ED" stop-opacity="0"/></linearGradient><filter id="a" x=".864" y=".976" width="2218.27" height="2067.47" filterUnits="userSpaceOnUse" color-interpolation-filters="sRGB"><feFlood flood-opacity="0" result="BackgroundImageFix"/><feBlend in="SourceGraphic" in2="BackgroundImageFix" result="shape"/><feGaussianBlur stdDeviation="222" result="effect1_foregroundBlur_16656_180"/></filter></defs></svg>