<svg width="1240" height="1324" viewBox="0 0 1240 1324" fill="none" xmlns="http://www.w3.org/2000/svg">
<g opacity="0.3" filter="url(#filter0_f_16656_163)">
<path fill-rule="evenodd" clip-rule="evenodd" d="M758.982 548.089C741.207 603.93 700.523 646.648 663.674 692.186C631.925 731.421 598.09 766.397 557.777 796.739C512.874 830.536 470.526 877.572 414.394 879.809C358.08 882.052 310.788 840.283 264.266 808.435C220.525 778.49 189.379 737.23 151.674 699.955C100.068 648.939 11.0067 619.993 0.911788 548.089C-8.84718 478.578 61.9942 424.626 105.265 369.396C143.615 320.448 186.422 277.093 239.09 244.085C293.174 210.192 351.267 166.38 414.394 175.666C477.417 184.937 504.215 265.406 562.281 291.628C629.977 322.198 730.87 280.033 776.099 339.004C819.375 395.428 780.559 480.308 758.982 548.089Z" fill="url(#paint0_linear_16656_163)" fill-opacity="0.5"/>
</g>
<defs>
<filter id="filter0_f_16656_163" x="-444" y="-269.598" width="1683.69" height="1593.49" filterUnits="userSpaceOnUse" color-interpolation-filters="sRGB">
<feFlood flood-opacity="0" result="BackgroundImageFix"/>
<feBlend mode="normal" in="SourceGraphic" in2="BackgroundImageFix" result="shape"/>
<feGaussianBlur stdDeviation="222" result="effect1_foregroundBlur_16656_163"/>
</filter>
<linearGradient id="paint0_linear_16656_163" x1="795.693" y1="527.149" x2="-1.5419e-05" y2="527.149" gradientUnits="userSpaceOnUse">
<stop stop-color="#F8C14F"/>
<stop offset="1" stop-color="#FFA6ED" stop-opacity="0"/>
</linearGradient>
</defs>
</svg>
