<svg width="1254" height="1795" fill="none" xmlns="http://www.w3.org/2000/svg"><g opacity=".3" filter="url(#a)"><path fill-rule="evenodd" clip-rule="evenodd" d="M762.801 924.466c-22.833 71.729-75.093 126.604-122.428 185.094-40.781 50.4-84.243 95.33-136.027 134.3-57.681 43.42-112.078 103.84-184.181 106.71-72.337 2.88-133.085-50.77-192.845-91.68-56.187-38.47-96.194-91.47-144.628-139.35-66.29-65.53-180.692-102.71-193.659-195.075-12.536-89.289 78.462-158.592 134.045-229.537C-27.66 632.052 27.326 576.361 94.981 533.962c69.472-43.538 144.095-99.815 225.184-87.887 80.955 11.909 115.378 115.275 189.967 148.957 86.957 39.268 216.557-14.894 274.656 60.856 55.59 72.479 5.729 181.51-21.987 268.578Z" fill="url(#b)" fill-opacity=".5"/></g><defs><linearGradient id="b" x1="809.957" y1="897.567" x2="-212.139" y2="897.567" gradientUnits="userSpaceOnUse"><stop stop-color="#F8C14F"/><stop offset="1" stop-color="#FFA6ED" stop-opacity="0"/></linearGradient><filter id="a" x="-656.139" y=".452" width="1910.1" height="1794.23" filterUnits="userSpaceOnUse" color-interpolation-filters="sRGB"><feFlood flood-opacity="0" result="BackgroundImageFix"/><feBlend in="SourceGraphic" in2="BackgroundImageFix" result="shape"/><feGaussianBlur stdDeviation="222" result="effect1_foregroundBlur_16656_178"/></filter></defs></svg>