<svg xmlns="http://www.w3.org/2000/svg" fill="none" viewBox="21.77 17.7 46.86 46.86"><g filter="url(#a)" fill="#FF6457"><path d="M68.633 41.13c0 12.94-10.49 23.43-23.43 23.43S21.772 54.07 21.772 41.13s10.49-23.431 23.43-23.431c12.941 0 23.431 10.49 23.431 23.43Z"/><path d="M68.633 41.13c0 12.94-10.49 23.43-23.43 23.43S21.772 54.07 21.772 41.13s10.49-23.431 23.43-23.431c12.941 0 23.431 10.49 23.431 23.43Z"/><path fill-rule="evenodd" clip-rule="evenodd" d="M47.82 33.32c.492 0 .984.07 1.452.226 2.883.938 3.921 4.1 3.054 6.866a9.94 9.94 0 0 1-2.35 3.755 30.036 30.036 0 0 1-4.945 3.874l-.195.118-.203-.125a29.754 29.754 0 0 1-4.975-3.874 10.1 10.1 0 0 1-2.351-3.748c-.883-2.765.156-5.928 3.07-6.882.226-.078.46-.133.694-.163h.094c.22-.032.437-.047.656-.047h.086c.492.015.968.1 1.43.258h.046a.272.272 0 0 1 .07.046c.173.055.336.118.492.204l.297.132c.072.039.152.097.222.148.044.032.084.06.114.079l.039.023c.067.039.136.08.195.124a4.891 4.891 0 0 1 3.007-1.014Zm2.077 5.623a.642.642 0 0 0 .617-.594v-.093a2.578 2.578 0 0 0-1.648-2.468.625.625 0 0 0-.79.39.639.639 0 0 0 .391.804c.501.188.836.68.836 1.226v.024a.672.672 0 0 0 .149.485c.109.133.273.21.445.226Z"/><path fill-rule="evenodd" clip-rule="evenodd" d="M47.82 33.32c.492 0 .984.07 1.452.226 2.883.938 3.921 4.1 3.054 6.866a9.94 9.94 0 0 1-2.35 3.755 30.036 30.036 0 0 1-4.945 3.874l-.195.118-.203-.125a29.754 29.754 0 0 1-4.975-3.874 10.1 10.1 0 0 1-2.351-3.748c-.883-2.765.156-5.928 3.07-6.882.226-.078.46-.133.694-.163h.094c.22-.032.437-.047.656-.047h.086c.492.015.968.1 1.43.258h.046a.272.272 0 0 1 .07.046c.173.055.336.118.492.204l.297.132c.072.039.152.097.222.148.044.032.084.06.114.079l.039.023c.067.039.136.08.195.124a4.891 4.891 0 0 1 3.007-1.014Zm2.077 5.623a.642.642 0 0 0 .617-.594v-.093a2.578 2.578 0 0 0-1.648-2.468.625.625 0 0 0-.79.39.639.639 0 0 0 .391.804c.501.188.836.68.836 1.226v.024a.672.672 0 0 0 .149.485c.109.133.273.21.445.226Z"/></g><g filter="url(#b)"><path d="M59.847 41.13c0 8.087-6.557 14.644-14.645 14.644-8.087 0-14.644-6.557-14.644-14.645 0-8.087 6.557-14.644 14.645-14.644 8.087 0 14.644 6.557 14.644 14.645Z" fill="#FF6457"/><path d="M59.847 41.13c0 8.087-6.557 14.644-14.645 14.644-8.087 0-14.644-6.557-14.644-14.645 0-8.087 6.557-14.644 14.645-14.644 8.087 0 14.644 6.557 14.644 14.645Z" fill="#FF917B"/><path fill-rule="evenodd" clip-rule="evenodd" d="M46.838 36.248c.308 0 .615.044.908.142 1.801.586 2.45 2.563 1.908 4.29a6.214 6.214 0 0 1-1.468 2.348 18.778 18.778 0 0 1-3.09 2.421l-.123.074-.127-.079a18.6 18.6 0 0 1-3.109-2.42 6.313 6.313 0 0 1-1.47-2.343c-.551-1.728.098-3.705 1.92-4.301.14-.05.287-.083.433-.102h.059c.137-.02.273-.03.41-.03h.054c.307.01.605.063.893.162h.03c.019.009.033.02.043.028.108.035.21.074.308.128l.185.083c.045.024.095.06.139.092.027.02.052.038.071.05l.024.014c.042.024.086.05.123.078a3.058 3.058 0 0 1 1.879-.635Zm1.298 3.515a.401.401 0 0 0 .386-.371v-.059a1.61 1.61 0 0 0-1.03-1.542.391.391 0 0 0-.493.244.4.4 0 0 0 .244.502.817.817 0 0 1 .522.767v.015a.42.42 0 0 0 .093.302.41.41 0 0 0 .278.142Z" fill="#FF6457"/><path fill-rule="evenodd" clip-rule="evenodd" d="M46.838 36.248c.308 0 .615.044.908.142 1.801.586 2.45 2.563 1.908 4.29a6.214 6.214 0 0 1-1.468 2.348 18.778 18.778 0 0 1-3.09 2.421l-.123.074-.127-.079a18.6 18.6 0 0 1-3.109-2.42 6.313 6.313 0 0 1-1.47-2.343c-.551-1.728.098-3.705 1.92-4.301.14-.05.287-.083.433-.102h.059c.137-.02.273-.03.41-.03h.054c.307.01.605.063.893.162h.03c.019.009.033.02.043.028.108.035.21.074.308.128l.185.083c.045.024.095.06.139.092.027.02.052.038.071.05l.024.014c.042.024.086.05.123.078a3.058 3.058 0 0 1 1.879-.635Zm1.298 3.515a.401.401 0 0 0 .386-.371v-.059a1.61 1.61 0 0 0-1.03-1.542.391.391 0 0 0-.493.244.4.4 0 0 0 .244.502.817.817 0 0 1 .522.767v.015a.42.42 0 0 0 .093.302.41.41 0 0 0 .278.142Z" fill="#FF917B"/></g><path d="M47.618 36.059h4.015l1.017 5.702-5.032-.929V36.06Z" fill="#fff"/><path fill-rule="evenodd" clip-rule="evenodd" d="M48.885 34.296c.524 0 1.047.073 1.544.238 3.063.987 4.166 4.316 3.244 7.227a10.449 10.449 0 0 1-2.497 3.953 31.869 31.869 0 0 1-5.253 4.078l-.208.124-.215-.132a31.574 31.574 0 0 1-5.285-4.078 10.62 10.62 0 0 1-2.5-3.945c-.937-2.91.167-6.24 3.263-7.244.24-.082.489-.14.738-.172h.1c.232-.034.464-.05.696-.05h.092a5.216 5.216 0 0 1 1.519.272h.049a.29.29 0 0 1 .075.049c.183.058.356.124.523.214l.315.14c.076.04.161.102.235.155.047.034.09.064.122.083l.04.024c.072.041.146.084.209.132a5.229 5.229 0 0 1 3.194-1.068Zm2.208 5.919a.68.68 0 0 0 .655-.626v-.097a2.713 2.713 0 0 0-1.75-2.598.666.666 0 0 0-.839.41.67.67 0 0 0 .415.847c.532.197.888.716.888 1.29v.026a.702.702 0 0 0 .158.51c.116.14.29.22.473.238Z" fill="#fff"/><defs><filter id="a" x=".294" y=".126" width="89.817" height="89.817" filterUnits="userSpaceOnUse" color-interpolation-filters="sRGB"><feFlood flood-opacity="0" result="BackgroundImageFix"/><feColorMatrix in="SourceAlpha" values="0 0 0 0 0 0 0 0 0 0 0 0 0 0 0 0 0 0 127 0" result="hardAlpha"/><feOffset dy="3.905"/><feGaussianBlur stdDeviation="10.739"/><feColorMatrix values="0 0 0 0 0 0 0 0 0 0 0 0 0 0 0 0 0 0 0.05 0"/><feBlend in2="BackgroundImageFix" result="effect1_dropShadow_16817_294"/><feBlend in="SourceGraphic" in2="effect1_dropShadow_16817_294" result="shape"/></filter><filter id="b" x="9.08" y="8.912" width="72.244" height="72.245" filterUnits="userSpaceOnUse" color-interpolation-filters="sRGB"><feFlood flood-opacity="0" result="BackgroundImageFix"/><feColorMatrix in="SourceAlpha" values="0 0 0 0 0 0 0 0 0 0 0 0 0 0 0 0 0 0 127 0" result="hardAlpha"/><feOffset dy="3.905"/><feGaussianBlur stdDeviation="10.739"/><feColorMatrix values="0 0 0 0 0 0 0 0 0 0 0 0 0 0 0 0 0 0 0.05 0"/><feBlend in2="BackgroundImageFix" result="effect1_dropShadow_16817_294"/><feBlend in="SourceGraphic" in2="effect1_dropShadow_16817_294" result="shape"/></filter></defs></svg>