<svg width="38" height="29" fill="none" xmlns="http://www.w3.org/2000/svg"><path fill-rule="evenodd" clip-rule="evenodd" d="M6.495.582c-1.994.336-3.7 1.523-4.741 3.3-2.464 4.204-.564 9.085 4.194 10.77 1.077.381 3.525.382 4.437 0 .712-.297.72-.295.72.154 0 .759-.772 3.035-1.508 4.444-.935 1.79-3.169 4.127-5.254 5.497-.92.604-1.703 1.12-1.74 1.145-.094.066 1.479 2.355 1.721 2.504.264.163 2.241-.867 4.035-2.102 3.71-2.554 6.54-6.323 7.82-10.41.392-1.255.454-1.855.454-4.364 0-2.529-.058-3.077-.444-4.194-1.66-4.8-5.475-7.455-9.694-6.744ZM27.289.561c-2.284.335-4.112 1.756-5.192 4.035-.557 1.177-.616 1.474-.616 3.145 0 1.69.054 1.953.63 3.127 1.103 2.24 3.1 3.654 5.68 4.02 1.296.183 2.961.022 3.665-.355.516-.276.516-.123 0 1.737-.94 3.397-3.236 6.416-6.481 8.525-.853.554-1.587 1.045-1.633 1.09-.113.114 1.59 2.604 1.78 2.604.306 0 2.21-1.045 3.632-1.995 2.07-1.381 5.118-4.528 6.273-6.477 3.023-5.1 3.23-11.311.517-15.476-1.505-2.31-3.35-3.565-5.837-3.968-.684-.111-1.287-.192-1.34-.18a40.92 40.92 0 0 1-1.078.168Z" fill="#fff"/></svg>