<svg xmlns="http://www.w3.org/2000/svg" fill="none" viewBox="0.6 0.88 14 11.78"><path d="M9.226.875h4.272c.31 0 .57.107.784.32.214.214.32.475.32.784v3.872c0 1.835-.384 3.28-1.152 4.336-.618.864-1.594 1.648-2.928 2.352-.266.139-.55.155-.848.048a1.071 1.071 0 0 1-.656-.56l-.368-.704a1.034 1.034 0 0 1-.08-.816c.096-.288.272-.506.528-.656.63-.362 1.094-.725 1.392-1.088.235-.288.406-.581.512-.88a.623.623 0 0 0 0-.48.78.78 0 0 0-.336-.384 1.037 1.037 0 0 0-.544-.144h-.896c-.31 0-.57-.106-.784-.32a1.047 1.047 0 0 1-.32-.768V1.98c0-.31.107-.57.32-.784.224-.213.486-.32.784-.32Zm-7.536 0h4.272c.31 0 .57.107.784.32.214.214.32.475.32.784v3.872c0 1.835-.384 3.28-1.152 4.336-.618.864-1.594 1.648-2.928 2.352-.266.139-.55.155-.848.048a1.13 1.13 0 0 1-.656-.56l-.368-.704a1.034 1.034 0 0 1-.08-.816c.096-.288.272-.506.528-.656.65-.373 1.115-.736 1.392-1.088.235-.288.406-.581.512-.88a.623.623 0 0 0 0-.48.78.78 0 0 0-.336-.384 1.037 1.037 0 0 0-.544-.144H1.69c-.298 0-.554-.106-.768-.32a1.047 1.047 0 0 1-.32-.768V1.98c0-.31.107-.57.32-.784.214-.213.47-.32.768-.32Z" fill="#fff"/></svg>