<svg width="210" height="64" fill="none" xmlns="http://www.w3.org/2000/svg"><path fill-rule="evenodd" clip-rule="evenodd" d="M102.178 39.3c.977.39 2.295.585 3.93.585h.012c1.647 0 2.941-.195 3.907-.596.965-.39 1.658-.956 2.09-1.679.431-.722.647-1.572.647-2.538v-5.663c0-.977-.216-1.816-.647-2.52-.432-.702-1.125-1.24-2.09-1.62-.966-.38-2.272-.566-3.907-.566-1.647 0-2.953.185-3.919.556-.965.38-1.67.918-2.101 1.62-.432.704-.647 1.553-.647 2.53v5.643c0 .986.204 1.836.624 2.568.42.723 1.125 1.289 2.101 1.68Zm5.975-1.397c-.466.225-1.147.342-2.045.342-.897 0-1.59-.117-2.056-.342-.465-.224-.783-.547-.942-.957-.159-.41-.239-.888-.239-1.445V28.97c0-.556.08-1.025.239-1.425.159-.4.477-.703.942-.918.466-.215 1.159-.322 2.056-.322.909 0 1.579.107 2.045.322.465.215.772.518.931.918.159.4.239.869.239 1.425v6.532c0 .557-.08 1.035-.239 1.445-.159.41-.466.733-.931.957Zm-26.882.273v1.533c1.124.049 2.067-.01 2.85-.166.773-.156 1.42-.43 1.931-.8.511-.372.92-.85 1.227-1.416.307-.566.545-1.24.704-2.002.16-.771.284-1.63.386-2.587l.568-6.386h4.384V39.71h3.396v-14.9H86.03l-.807 7.929c-.125 1.035-.261 1.884-.42 2.558-.16.674-.352 1.21-.568 1.601-.216.4-.466.684-.761.87a2.33 2.33 0 0 1-.988.35 7.995 7.995 0 0 1-1.215.06Zm34.251 1.543v-14.9h10.449v1.514h-7.053v4.687h.749c1.761 0 3.215.127 4.362.38 1.147.254 2.01.694 2.578 1.319.568.624.852 1.503.852 2.645 0 .772-.148 1.436-.454 1.983-.296.546-.761.995-1.397 1.347-.636.351-1.42.615-2.374.78-.954.167-2.09.245-3.408.245h-4.304Zm3.396-1.494h.965c1 0 1.829-.068 2.476-.215.648-.136 1.136-.42 1.443-.84.306-.42.465-1.034.465-1.835 0-1.015-.318-1.738-.942-2.167-.636-.43-1.806-.645-3.533-.645h-.874v5.702Zm16.444-13.405-5.168 14.899h3.18l1.17-3.75h4.952l1.113 3.75h3.215l-5.191-14.9h-3.271Zm3.691 9.656h-4.055l2.011-6.717 2.044 6.717Zm7.506 5.243v-14.9h3.396v6.445h6.235V24.82h3.396v14.899h-3.396v-6.971h-6.235v6.971h-3.396Zm18.488-.42c.977.39 2.294.586 3.93.586h.011c1.647 0 2.942-.195 3.907-.596.966-.39 1.659-.956 2.09-1.679.432-.722.648-1.572.648-2.538v-5.663c0-.977-.216-1.816-.648-2.52-.431-.702-1.124-1.24-2.09-1.62-.965-.38-2.271-.566-3.907-.566-1.647 0-2.953.185-3.918.556-.966.38-1.67.918-2.101 1.62-.432.704-.648 1.553-.648 2.53v5.643c0 .986.205 1.836.625 2.568.42.723 1.124 1.289 2.101 1.68Zm5.974-1.396c-.465.225-1.147.342-2.044.342s-1.59-.117-2.056-.342c-.466-.224-.784-.547-.943-.957-.159-.41-.238-.888-.238-1.445V28.97c0-.556.079-1.025.238-1.425.159-.4.477-.703.943-.918.466-.215 1.159-.322 2.056-.322.909 0 1.579.107 2.044.322.466.215.773.518.932.918.159.4.238.869.238 1.425v6.532c0 .557-.079 1.035-.238 1.445-.159.41-.466.733-.932.957Zm7.347 1.816v-14.9h5.588c1.102 0 2.056.079 2.862.225.807.147 1.488.371 2.022.684.545.302.943.693 1.204 1.171.261.469.386 1.025.386 1.67 0 .615-.125 1.142-.375 1.591-.25.45-.636.801-1.135 1.055-.512.254-1.17.42-1.965.498.976.136 1.771.361 2.373.693.602.322 1.045.742 1.341 1.25.295.508.431 1.123.431 1.826 0 .634-.125 1.22-.363 1.747a3.381 3.381 0 0 1-1.125 1.348c-.511.37-1.158.654-1.953.859-.795.205-1.727.303-2.806.303h-6.485v-.02Zm3.396-1.494h2.283c1.522 0 2.533-.215 3.044-.654.511-.44.761-1.142.761-2.109 0-.625-.136-1.152-.409-1.572-.273-.42-.704-.742-1.295-.957-.59-.215-1.385-.322-2.385-.322h-2.01v5.614h.011Zm0-7.196h2.01c.966 0 1.715-.078 2.249-.244.545-.166.92-.43 1.136-.8.216-.371.329-.85.329-1.436 0-.683-.17-1.181-.511-1.493-.34-.303-.874-.498-1.59-.576-.715-.079-1.658-.118-2.817-.118h-.806v4.667Zm17.239-6.21-5.168 14.9h3.181l1.169-3.75h4.953l1.113 3.75h3.214l-5.191-14.9h-3.271Zm3.692 9.657h-4.055l2.01-6.717 2.045 6.717Z" fill="#000"/><path d="M58.336 40.528c-5.205 4.244-14.212 11.205-21.261 22.613C22.244 41.147 13.224 43.635 2.852 26.732-4.336 15.01 7.994-2.438 23.393 1.946 37.605 5.99 37.087 15.54 27.436 26.732c-9.008 10.46-2.337 25.898 12.14 23.65 12.658-1.971 15.35-16.6 3.007-29.145-10.51-10.687 9.045-31.393 25.72-14.313 8.604 8.818 6.949 19.808-9.954 33.604h-.013Z" fill="#D60D0D"/><path d="M6.213 23.55c-2.527-3.046-2.691-8.655 5.141-13.165C5.67 17.27 8.777 19.04 9.004 22.5c.102 1.58-1.187 2.982-2.791 1.05ZM67.28 16.235c2.527 3.057 2.691 8.653-5.142 13.163 5.685-6.885 2.578-8.654 2.35-12.115-.1-1.58 1.188-2.981 2.792-1.049Z" fill="#fff"/><path d="M34.776 48.158c-3.045.126-6.544-2.388-5.647-9.273 1.566 6.683 4.093 5.61 6.304 7.075 1.01.67 1.263 2.11-.657 2.185v.013Z" fill="#D60D0D"/><path fill-rule="evenodd" clip-rule="evenodd" d="M82.94 19.421v-1.943h1.113c.341-.176.67-.38 1.011-.625.33-.244.636-.566.932-.967.295-.4.556-.917.795-1.542.238-.635.454-1.426.647-2.383.193-.956.34-2.118.432-3.475l.386-4.414h10.177v13.416h2.339v1.943H82.94v-.01Zm4.26-1.943h7.86V5.615h-3.93l-.24 3.369c-.079 1.328-.204 2.44-.374 3.339-.17.898-.375 1.64-.602 2.226-.227.586-.488 1.054-.784 1.416a4.165 4.165 0 0 1-.931.869c-.33.224-.67.439-1.01.644h.01Zm22.329 1.66c-1.635 0-2.953-.196-3.93-.586-.976-.39-1.681-.957-2.101-1.68-.42-.732-.636-1.581-.636-2.567V8.66c0-.976.216-1.825.647-2.528.432-.703 1.136-1.25 2.102-1.621.965-.371 2.271-.557 3.918-.557 1.636 0 2.942.186 3.907.567.966.38 1.659.917 2.09 1.62.432.703.648 1.543.648 2.52v5.662c0 .967-.216 1.816-.648 2.539-.431.722-1.124 1.289-2.09 1.68-.965.4-2.26.595-3.907.595Zm0-1.64c.897 0 1.579-.118 2.045-.342.465-.225.772-.547.931-.957.159-.41.239-.889.239-1.445V8.222c0-.556-.08-1.025-.239-1.425-.159-.4-.466-.703-.931-.918-.466-.215-1.136-.322-2.045-.322-.897 0-1.59.107-2.056.322-.465.215-.783.517-.942.918-.159.4-.239.878-.239 1.425v6.532c0 .556.08 1.035.239 1.445.159.41.477.732.942.957.466.224 1.159.341 2.056.341Zm9.961 1.474v-14.9h3.396v6.62h1.261l4.35-6.62h3.396l-4.804 7.08 5.406 7.82h-3.396l-4.918-7.264h-1.295v7.264h-3.396Zm17.923 0V5.615h-4.112V4.072h11.495v1.543h-3.987v13.357h-3.396Zm15.935.166c-1.635 0-2.953-.196-3.93-.586-.976-.39-1.681-.957-2.101-1.68-.42-.732-.636-1.581-.636-2.567V8.66c0-.976.216-1.825.647-2.528.432-.703 1.136-1.25 2.102-1.621.965-.371 2.271-.557 3.918-.557 1.636 0 2.942.186 3.907.567.966.38 1.659.917 2.09 1.62.432.703.648 1.543.648 2.52v5.662c0 .967-.216 1.816-.648 2.539-.431.722-1.124 1.289-2.09 1.68-.965.4-2.26.595-3.907.595Zm0-1.64c.897 0 1.579-.118 2.045-.342.465-.225.772-.547.931-.957.159-.41.238-.889.238-1.445V8.222c0-.556-.079-1.025-.238-1.425-.159-.4-.466-.703-.931-.918-.466-.215-1.136-.322-2.045-.322-.897 0-1.59.107-2.056.322-.465.215-.783.517-.942.918-.159.4-.239.878-.239 1.425v6.532c0 .556.08 1.035.239 1.445.159.41.477.732.942.957.466.224 1.159.341 2.056.341Zm9.961 1.474v-14.9h6.031c1.465 0 2.624.166 3.498.489.875.322 1.511.79 1.909 1.406.397.615.602 1.357.602 2.226 0 .78-.228 1.464-.671 2.04-.454.576-1.113 1.025-1.999 1.338-.885.312-1.976.469-3.305.469h-2.669v6.932h-3.396Zm3.396-8.426h1.556c.977 0 1.749-.069 2.306-.205.556-.137.965-.371 1.204-.713.238-.342.363-.81.363-1.425 0-.713-.079-1.26-.25-1.64-.17-.382-.522-.645-1.067-.792-.545-.146-1.386-.224-2.522-.224h-1.59v4.999ZM86.767 56.64c-.541.47-.806 1.179-.806 2.153 0 .89.217 1.563.674 2.032.456.481 1.046.71 1.78.71.456 0 .877-.108 1.262-.325.397-.216.685-.517.89-.902.204-.385.3-.914.3-1.587 0-.83-.228-1.48-.685-1.948-.457-.47-1.046-.71-1.768-.71-.649 0-1.202.193-1.647.578Zm.553 3.656c-.3-.325-.445-.83-.445-1.503 0-.673.156-1.166.445-1.503a1.425 1.425 0 0 1 1.106-.493c.445 0 .806.168 1.107.505.3.325.445.818.445 1.467 0 .685-.157 1.19-.445 1.527-.3.337-.662.505-1.107.505-.445 0-.805-.168-1.106-.505Zm-5.172-4.124h-.877v5.243h.89v-2.43c.204 0 .372.049.517.157.144.108.312.325.505.65l.962 1.623h.974l-.974-1.624c-.373-.613-.746-.962-1.13-1.07.228-.108.408-.228.516-.36.12-.133.24-.361.373-.71.133-.361.24-.577.313-.65.06-.072.216-.108.445-.108h.252v-.733h-.18c-.313 0-.541.024-.685.072a.794.794 0 0 0-.373.264c-.109.133-.24.41-.421.818-.229.53-.397.842-.505.95-.12.12-.313.168-.602.168v-2.26Zm10.258 0h.89v2.176h2.466V56.17h.89v5.243h-.89v-2.32h-2.466v2.32h-.89v-5.243Zm10.355 3.44-.866-.12.012.035c-.06.445-.217.77-.445.986a1.26 1.26 0 0 1-.878.325c-.433 0-.782-.168-1.058-.481-.277-.325-.41-.83-.41-1.54 0-.697.145-1.202.422-1.527.276-.324.649-.48 1.094-.48.301 0 .553.084.758.264.204.18.348.445.433.794l.853-.133c-.108-.529-.336-.938-.697-1.226-.361-.289-.83-.433-1.395-.433-.457 0-.866.096-1.25.313-.386.204-.662.529-.855.95-.18.42-.276.913-.276 1.479 0 .866.216 1.539.65 2.008.444.469 1.01.697 1.731.697.565 0 1.046-.168 1.443-.505.397-.336.637-.805.734-1.407Zm1.214 3.823-.096-.818c.192.049.36.085.505.085.204 0 .36-.036.481-.097a.708.708 0 0 0 .288-.276c.056-.078.132-.278.247-.583l.03-.079a.802.802 0 0 1 .041-.108l.043-.108-1.996-5.267h.95l1.094 3.03c.145.385.265.782.385 1.215.108-.397.229-.794.361-1.179l1.118-3.054h.89l-1.984 5.34c-.217.576-.385.973-.505 1.19-.157.288-.337.505-.541.637a1.316 1.316 0 0 1-.734.204 1.85 1.85 0 0 1-.577-.108v-.024Zm9.921-7.263h-4.137l-.012-.024v3.463c0 .457-.012.722-.036.806a.261.261 0 0 1-.156.18c-.084.036-.217.06-.397.06h-.385v.746a8.5 8.5 0 0 0 .722.036c.337 0 .589-.072.769-.217a.839.839 0 0 0 .325-.505c.036-.192.06-.589.06-1.202v-2.61h2.357v4.51h.89v-5.243Zm1.804 0h.89v2.056h1.13c.734 0 1.299.144 1.696.42.397.289.589.674.589 1.179 0 .433-.168.818-.493 1.118-.325.313-.854.47-1.587.47H115.7V56.17Zm.89 4.52h.938c.565 0 .962-.071 1.202-.204.241-.132.361-.348.361-.649a.84.84 0 0 0-.264-.613c-.181-.18-.578-.265-1.191-.265h-1.058v1.732h.012Zm7.865-4.52h-4.245v.733h1.683v4.51h.89v-4.51h1.672v-.734Zm4.654 4.582c-.325.276-.65.48-.95.589a2.66 2.66 0 0 1-.986.168c-.578 0-1.023-.144-1.335-.42a1.368 1.368 0 0 1-.469-1.07c0-.253.06-.494.18-.698.12-.217.277-.385.457-.505.192-.133.397-.229.637-.289.178-.047.436-.083.776-.13l.018-.002c.722-.084 1.251-.193 1.587-.3v-.23c0-.36-.084-.613-.252-.757-.229-.204-.565-.3-1.01-.3-.421 0-.734.072-.926.216-.205.144-.349.409-.445.781l-.866-.12c.084-.373.204-.673.397-.902.18-.228.445-.409.794-.529.336-.12.745-.18 1.19-.18.445 0 .818.048 1.094.156.277.108.493.24.614.397.132.156.228.36.276.601.024.157.048.421.048.818v1.178c0 .83.024 1.347.061 1.564.036.216.108.433.216.637h-.926a2.137 2.137 0 0 1-.168-.661l-.012-.012Zm-.072-1.972c-.325.132-.806.24-1.456.336-.372.048-.625.108-.781.18a.688.688 0 0 0-.349.29.747.747 0 0 0-.12.42c0 .229.084.433.264.59.181.156.445.24.794.24.337 0 .649-.072.914-.229.265-.144.469-.348.589-.613.096-.204.145-.493.145-.89v-.324Zm3.655-2.61h-.89v5.242h4.089v1.492h.734V60.68h-.578v-4.51h-.89v4.51h-2.465v-4.51Zm5.376 0h.89v3.992l2.465-3.993h.962v5.243h-.89v-3.98l-2.465 3.98h-.962v-5.243Zm7.023 0h-.89v5.242h.962l2.465-3.98v3.98h.89v-5.243h-.962l-2.465 3.993V56.17Zm8.057 0h3.018v.733h-2.128v4.51h-.89V56.17Zm7.539 3.549-.011-.002h.012l-.001.002Zm-.552.828c.228-.168.408-.444.552-.828l.915.118c-.145.53-.409.95-.806 1.25-.397.302-.89.446-1.503.446-.77 0-1.371-.24-1.816-.71-.445-.469-.674-1.13-.674-1.984 0-.878.229-1.563.674-2.044.457-.481 1.046-.734 1.768-.734.697 0 1.274.24 1.719.71.445.48.662 1.142.662 2.008v.24h-3.909c.036.578.193 1.01.493 1.323.289.301.662.457 1.095.457.324 0 .601-.084.83-.252Zm.553-2.261h-2.923l.013-.012c.024-.457.18-.818.456-1.094a1.38 1.38 0 0 1 1.023-.41c.445 0 .817.181 1.094.518.18.228.301.553.337.998Zm2.537-2.117h1.371l1.395 4.197 1.527-4.197h1.275v5.243h-.89v-4.22l-1.552 4.22h-.793l-1.455-4.425v4.425h-.878v-5.243Zm9.885 5.172c.301-.108.625-.313.95-.59l.012.013c.024.252.084.469.168.661h.926a2.108 2.108 0 0 1-.216-.637c-.036-.217-.06-.734-.06-1.563v-1.179c0-.397-.024-.661-.048-.818a1.339 1.339 0 0 0-.277-.601c-.12-.156-.337-.289-.613-.397-.277-.108-.65-.156-1.095-.156-.445 0-.853.06-1.19.18-.349.12-.613.3-.794.53-.192.228-.313.528-.397.901l.866.12c.096-.372.241-.637.445-.781.192-.145.505-.217.926-.217.445 0 .782.097 1.01.301.169.144.253.397.253.758v.228c-.337.108-.866.217-1.588.3l-.018.003c-.34.047-.598.083-.775.13a1.93 1.93 0 0 0-.638.289c-.18.12-.336.288-.457.505-.12.204-.18.445-.18.697 0 .433.156.794.469 1.07.313.277.758.421 1.335.421.349 0 .685-.048.986-.168Zm-.577-2.225c.649-.096 1.13-.204 1.455-.336v.324c0 .397-.048.686-.145.89-.12.265-.324.47-.589.613a1.778 1.778 0 0 1-.914.229c-.348 0-.613-.084-.793-.24a.751.751 0 0 1-.265-.59c0-.156.036-.288.12-.42a.692.692 0 0 1 .349-.29c.156-.072.409-.132.782-.18Zm3.524-2.947h4.245v.734h-1.672v4.51h-.89v-4.51h-1.683v-.734Zm5.94.47c-.541.468-.806 1.178-.806 2.152 0 .89.217 1.563.674 2.032.457.481 1.046.71 1.78.71a2.53 2.53 0 0 0 1.262-.325c.397-.216.686-.517.89-.902.205-.385.301-.914.301-1.587 0-.83-.229-1.48-.686-1.948-.457-.47-1.046-.71-1.767-.71-.65 0-1.203.193-1.648.578Zm.553 3.655c-.3-.325-.445-.83-.445-1.503 0-.673.157-1.166.445-1.503a1.427 1.427 0 0 1 1.107-.493c.445 0 .805.168 1.106.505.301.325.445.818.445 1.467 0 .685-.156 1.19-.445 1.527-.301.337-.661.505-1.106.505-.445 0-.806-.168-1.107-.505Zm5.291-4.124h4.137v5.243h-.89v-4.51h-2.357v2.61c0 .613-.024 1.01-.06 1.202a.842.842 0 0 1-.324.505c-.181.145-.433.217-.77.217a8.5 8.5 0 0 1-.722-.036v-.746h.385c.181 0 .313-.024.397-.06a.261.261 0 0 0 .156-.18c.024-.084.036-.35.036-.806v-3.463l.012.024Zm6.542.469c-.541.468-.805 1.178-.805 2.152 0 .89.216 1.563.673 2.032.457.481 1.046.71 1.78.71.457 0 .878-.108 1.263-.325.396-.216.685-.517.889-.902.205-.385.301-.914.301-1.587 0-.83-.228-1.48-.685-1.948-.457-.47-1.047-.71-1.768-.71-.649 0-1.203.193-1.648.578Zm.554 3.655c-.301-.325-.445-.83-.445-1.503 0-.673.156-1.166.445-1.503a1.424 1.424 0 0 1 1.106-.493c.445 0 .806.168 1.106.505.301.325.445.818.445 1.467 0 .685-.156 1.19-.445 1.527-.3.337-.661.505-1.106.505-.445 0-.806-.168-1.106-.505Zm5.086-4.125h3.019v.734h-2.129v4.51h-.89V56.17Zm6.422 5.172c.301-.108.625-.313.95-.59l.012.013c.024.252.084.469.168.661h.926a2.108 2.108 0 0 1-.216-.637c-.036-.217-.06-.734-.06-1.563v-1.179c0-.397-.024-.661-.048-.818a1.328 1.328 0 0 0-.277-.601c-.12-.156-.337-.289-.613-.397-.277-.108-.65-.156-1.095-.156-.445 0-.853.06-1.19.18-.349.12-.613.3-.794.53-.192.228-.313.528-.397.901l.866.12c.096-.372.241-.637.445-.781.193-.145.505-.217.926-.217.445 0 .782.097 1.01.301.169.144.253.397.253.758v.228c-.337.108-.866.217-1.588.3l-.018.003c-.339.047-.598.083-.775.13a1.93 1.93 0 0 0-.638.289c-.18.12-.336.288-.457.505-.12.204-.18.445-.18.697 0 .433.156.794.469 1.07.313.277.758.421 1.335.421.349 0 .685-.048.986-.168Zm-.577-2.225c.649-.096 1.13-.204 1.455-.336v.324c0 .397-.048.686-.145.89-.12.265-.324.47-.589.613a1.778 1.778 0 0 1-.914.229c-.348 0-.613-.084-.793-.24a.751.751 0 0 1-.265-.59c0-.156.036-.288.12-.42a.692.692 0 0 1 .349-.29c.156-.072.409-.132.782-.18Z" fill="#000"/><path fill="#D60D0D" d="M81.27 48.125h128.844v1.313H81.27z"/></svg>