<svg width="74" height="64" fill="none" xmlns="http://www.w3.org/2000/svg"><path d="M58.336 40.528c-5.205 4.244-14.212 11.205-21.261 22.613C22.244 41.147 13.224 43.635 2.852 26.732-4.336 15.01 7.994-2.438 23.393 1.946 37.605 5.99 37.087 15.54 27.436 26.732c-9.008 10.46-2.337 25.898 12.14 23.65 12.658-1.971 15.35-16.6 3.007-29.145-10.51-10.687 9.045-31.393 25.72-14.313 8.604 8.818 6.949 19.808-9.954 33.604h-.013Z" fill="#D60D0D"/><path d="M6.213 23.55c-2.527-3.046-2.691-8.655 5.141-13.165C5.67 17.27 8.777 19.04 9.004 22.5c.102 1.58-1.187 2.982-2.791 1.05ZM67.28 16.235c2.527 3.057 2.691 8.653-5.142 13.163 5.685-6.885 2.578-8.654 2.35-12.115-.1-1.58 1.188-2.981 2.792-1.049Z" fill="#fff"/><path d="M34.776 48.158c-3.045.126-6.544-2.388-5.647-9.273 1.566 6.683 4.093 5.61 6.304 7.075 1.01.67 1.263 2.11-.657 2.185v.013Z" fill="#D60D0D"/></svg>