<svg width="74" height="64" viewBox="0 0 74 64" fill="none" xmlns="http://www.w3.org/2000/svg">
<path d="M58.3361 40.5276C53.1313 44.7723 44.124 51.7331 37.0748 63.1407C22.2436 41.1466 13.2237 43.6353 2.85198 26.7324C-4.3362 15.0089 7.9936 -2.43722 23.3932 1.94643C37.6053 5.98899 37.0874 15.5395 27.4358 26.7324C18.4285 37.1925 25.0987 52.63 39.5761 50.3813C52.2344 48.4106 54.9252 33.7816 42.5827 21.237C32.0721 10.5495 51.628 -10.156 68.3035 6.92383C76.9066 15.7417 75.2517 26.7324 58.3487 40.5276H58.3361Z" fill="#D60D0D"/>
<path d="M6.21255 23.5491C3.68595 20.5045 3.52172 14.8955 11.3542 10.3855C5.66933 17.2705 8.77705 19.0391 9.00444 22.5005C9.10551 24.0797 7.81694 25.4819 6.21255 23.5491Z" fill="white"/>
<path d="M67.2802 16.2345C69.8068 19.2917 69.971 24.8881 62.1385 29.3981C67.8234 22.5131 64.7157 20.7445 64.4883 17.283C64.3872 15.7039 65.6758 14.3016 67.2802 16.2345Z" fill="white"/>
<path d="M34.7757 48.1579C31.7312 48.2842 28.2318 45.7702 29.1288 38.8853C30.6953 45.5681 33.2219 44.4943 35.4327 45.9597C36.4433 46.6293 36.696 48.0694 34.7757 48.1452V48.1579Z" fill="#D60D0D"/>
</svg>
