<svg width="31" height="27" viewBox="0 0 31 27" xmlns="http://www.w3.org/2000/svg">
<path d="M1.59955 10.1249C1.59955 7.8335 3.4571 5.97595 5.7485 5.97595H7.46515C8.12903 5.97595 8.72904 5.58031 8.99055 4.97011L10.0008 2.61276C10.3931 1.69746 11.2931 1.104 12.2889 1.104H15.5194H18.7499C19.7457 1.104 20.6457 1.69746 21.038 2.61276L22.0483 4.97011C22.3098 5.58031 22.9098 5.97595 23.5737 5.97595H25.2903C27.5817 5.97595 29.4393 7.8335 29.4393 10.1249V21.3148C29.4393 23.6062 27.5817 25.4637 25.2903 25.4637H5.7485C3.4571 25.4637 1.59955 23.6062 1.59955 21.3148V10.1249Z" stroke-width="1.24469"/>
<circle r="4.17596" transform="matrix(-1 0 0 1 15.5192 14.3277)" stroke-width="1.24469"/>
</svg>
