<svg xmlns="http://www.w3.org/2000/svg" viewBox="0.71 0.56 17.5 21.5">
<path fill-rule="evenodd" clip-rule="evenodd" d="M11.7139 0.566398C11.6519 0.562186 11.5896 0.560059 11.5271 0.560059H5.46387C2.84051 0.560059 0.713867 2.68671 0.713867 5.31006V17.3101C0.713867 19.9334 2.84051 22.0601 5.46387 22.0601H13.4639C16.0872 22.0601 18.2139 19.9334 18.2139 17.3101V8.06006H14.4639C12.9451 8.06006 11.7139 6.82884 11.7139 5.31006V0.566398ZM4.71387 11.3101C4.71387 10.8958 5.04965 10.5601 5.46387 10.5601H13.4639C13.8781 10.5601 14.2139 10.8958 14.2139 11.3101C14.2139 11.7243 13.8781 12.0601 13.4639 12.0601H5.46387C5.04965 12.0601 4.71387 11.7243 4.71387 11.3101ZM5.46387 15.5601C5.04965 15.5601 4.71387 15.8958 4.71387 16.3101C4.71387 16.7243 5.04965 17.0601 5.46387 17.0601H9.46387C9.87808 17.0601 10.2139 16.7243 10.2139 16.3101C10.2139 15.8958 9.87808 15.5601 9.46387 15.5601H5.46387Z"/>
<path d="M17.7854 6.56006C17.7223 6.46065 17.6526 6.36495 17.5765 6.27365L13.6397 1.54955C13.5118 1.39607 13.3688 1.25843 13.2139 1.13808V5.31006C13.2139 6.00041 13.7735 6.56006 14.4639 6.56006H17.7854Z"/>
</svg>