<svg width="31" height="32" viewBox="0 0 31 32" xmlns="http://www.w3.org/2000/svg">
<path d="M26.6981 29.6087C23.5713 32.7354 15.5638 29.7974 8.81287 23.0465C2.06191 16.2955 -0.876086 8.28804 2.25067 5.16127L4.3094 3.10254C5.73065 1.68129 8.07253 1.71886 9.54013 3.18646L12.7289 6.37525C14.1965 7.84285 14.2341 10.1847 12.8128 11.606L12.3706 12.0482C11.6033 12.8155 11.5282 14.0534 12.2412 14.9175C12.929 15.7509 13.6704 16.581 14.4744 17.385C15.2783 18.1889 16.1084 18.9304 16.9419 19.6181C17.8059 20.3311 19.0438 20.256 19.8112 19.4887L20.2534 19.0465C21.6746 17.6252 24.0165 17.6628 25.4841 19.1304L28.6729 22.3192C30.1405 23.7868 30.178 26.1287 28.7568 27.5499L26.6981 29.6087Z" stroke-width="1.5"/>
<path d="M24.4012 11.6598C24.0108 10.7076 23.4291 9.81541 22.6559 9.04221C21.9263 8.31267 21.0909 7.75355 20.199 7.36484" stroke-width="1.5" stroke-linecap="round"/>
<path d="M20.199 1.92059C22.3343 2.69416 24.3377 3.93688 26.0497 5.64879C27.8045 7.40365 29.0664 9.4649 29.8352 11.6605" stroke-width="1.5" stroke-linecap="round"/>
</svg>
