<svg width="19" height="20" viewBox="0 0 19 20" xmlns="http://www.w3.org/2000/svg">
<path fill-rule="evenodd" clip-rule="evenodd" d="M16.202 3.26192C14.4543 1.52218 12.1322 0.562012 9.65881 0.562012C4.56093 0.562012 0.409456 4.69164 0.409456 9.76639C0.406432 11.3887 0.832768 12.972 1.64311 14.3686L0.330841 19.1393L5.23521 17.8571C6.58375 18.5915 8.10767 18.9768 9.65578 18.9798H9.65881C14.7567 18.9798 18.9051 14.8502 18.9082 9.77241C18.9082 7.3133 17.9466 5.00167 16.202 3.26192ZM9.65881 17.4237H9.65578C8.277 17.4237 6.9224 17.0534 5.74318 16.3582L5.46198 16.1926L2.5502 16.9511L3.32728 14.1278L3.14586 13.8388C2.37483 12.6198 1.96966 11.2112 1.96966 9.76639C1.96966 5.54947 5.41965 2.11815 9.66183 2.11815C11.7149 2.11815 13.644 2.91578 15.0953 4.36055C16.5467 5.80833 17.3449 7.72867 17.3449 9.77241C17.3449 13.9923 13.8949 17.4237 9.65881 17.4237ZM13.8738 11.6928C13.644 11.5784 12.5071 11.0215 12.2954 10.9463C12.0838 10.868 11.9296 10.8319 11.7754 11.0607C11.6212 11.2924 11.1797 11.8101 11.0436 11.9636C10.9106 12.1141 10.7745 12.1352 10.5447 12.0208C10.3119 11.9065 9.5681 11.6627 8.68519 10.8771C7.99882 10.2691 7.53318 9.51356 7.40014 9.28481C7.26408 9.05304 7.38502 8.92963 7.49992 8.81525C7.60575 8.71292 7.73274 8.54737 7.84764 8.41192C7.96254 8.27949 8.00185 8.18317 8.08046 8.02966C8.15605 7.87615 8.11675 7.74071 8.0593 7.62633C8.00185 7.51195 7.53923 6.37721 7.34571 5.91669C7.15825 5.46821 6.96776 5.53141 6.82565 5.52239C6.69261 5.51637 6.5384 5.51637 6.38419 5.51637C6.22999 5.51637 5.97902 5.57355 5.76737 5.80532C5.55571 6.03407 4.96005 6.59091 4.96005 7.72265C4.96005 8.85438 5.78853 9.95 5.90343 10.1035C6.01833 10.254 7.53318 12.5777 9.85232 13.574C10.4026 13.8117 10.832 13.9532 11.1676 14.0586C11.7209 14.2331 12.2259 14.2091 12.625 14.1519C13.0695 14.0857 13.9917 13.595 14.1852 13.0563C14.3757 12.5205 14.3757 12.06 14.3183 11.9636C14.2608 11.8673 14.1066 11.8101 13.8738 11.6928Z"/>
</svg>
