<svg width="210" height="64" viewBox="0 0 210 64" fill="none" xmlns="http://www.w3.org/2000/svg">
<path fill-rule="evenodd" clip-rule="evenodd" d="M102.178 39.2993C103.155 39.6899 104.473 39.8851 106.108 39.8851H106.12C107.767 39.8851 109.061 39.6899 110.027 39.2895C110.992 38.899 111.685 38.3327 112.117 37.6102C112.548 36.8877 112.764 36.0382 112.764 35.0716V29.4087C112.764 28.4324 112.548 27.5927 112.117 26.8897C111.685 26.1867 110.992 25.6497 110.027 25.2689C109.061 24.8881 107.755 24.7026 106.12 24.7026C104.473 24.7026 103.167 24.8881 102.201 25.2592C101.236 25.6399 100.531 26.1769 100.1 26.8799C99.6683 27.5829 99.4525 28.4324 99.4525 29.4087V35.0521C99.4525 36.0382 99.6569 36.8877 100.077 37.62C100.497 38.3425 101.202 38.9088 102.178 39.2993ZM108.153 37.9031C107.687 38.1277 107.006 38.2448 106.108 38.2448C105.211 38.2448 104.518 38.1277 104.052 37.9031C103.587 37.6785 103.269 37.3563 103.11 36.9463C102.951 36.5362 102.871 36.0578 102.871 35.5012V28.9694C102.871 28.4128 102.951 27.9442 103.11 27.5439C103.269 27.1436 103.587 26.8409 104.052 26.6261C104.518 26.4113 105.211 26.3039 106.108 26.3039C107.017 26.3039 107.687 26.4113 108.153 26.6261C108.618 26.8409 108.925 27.1436 109.084 27.5439C109.243 27.9442 109.323 28.4128 109.323 28.9694V35.5012C109.323 36.0578 109.243 36.5362 109.084 36.9463C108.925 37.3563 108.618 37.6785 108.153 37.9031ZM81.2706 38.1763V39.7092C82.395 39.758 83.3377 39.6994 84.1214 39.5432C84.8938 39.387 85.5412 39.1136 86.0523 38.7426C86.5634 38.3715 86.9723 37.8931 87.2789 37.3268C87.5856 36.7605 87.8241 36.0869 87.9831 35.3253C88.1421 34.554 88.2671 33.6948 88.3693 32.7379L88.9372 26.3525H93.3214V39.7092H96.7174V24.8098H86.0296L85.2231 32.7379C85.0982 33.7729 84.9619 34.6223 84.8029 35.296C84.6439 35.9697 84.4508 36.5067 84.235 36.8972C84.0192 37.2975 83.7693 37.5807 83.474 37.7662C83.1901 37.9517 82.8607 38.0689 82.4859 38.1177C82.1111 38.1665 81.7135 38.186 81.2706 38.1763ZM115.522 39.719V24.8197H125.971V26.3331H118.918V31.0196H119.667C121.428 31.0196 122.882 31.1465 124.029 31.4004C125.176 31.6543 126.039 32.0936 126.607 32.7185C127.175 33.3434 127.459 34.2221 127.459 35.3644C127.459 36.1358 127.311 36.7997 127.005 37.3465C126.709 37.8932 126.244 38.3424 125.608 38.6938C124.972 39.0453 124.188 39.309 123.234 39.4749C122.28 39.6409 121.144 39.719 119.826 39.719H115.522ZM118.918 38.2252H119.883C120.883 38.2252 121.712 38.1568 122.359 38.0104C123.007 37.8737 123.495 37.5906 123.802 37.1707C124.108 36.7509 124.267 36.1358 124.267 35.3351C124.267 34.3197 123.949 33.5972 123.325 33.1676C122.689 32.738 121.519 32.5232 119.792 32.5232H118.918V38.2252ZM135.362 24.8197L130.194 39.719H133.374L134.544 35.9698H139.496L140.609 39.719H143.824L138.633 24.8197H135.362ZM139.053 34.4759H134.998L137.009 27.7586L139.053 34.4759ZM146.559 39.719V24.8197H149.955V31.2637H156.19V24.8197H159.586V39.719H156.19V32.7478H149.955V39.719H146.559ZM165.047 39.2993C166.024 39.6899 167.341 39.8851 168.977 39.8851H168.988C170.635 39.8851 171.93 39.6899 172.895 39.2895C173.861 38.899 174.554 38.3327 174.985 37.6102C175.417 36.8877 175.633 36.0382 175.633 35.0716V29.4087C175.633 28.4324 175.417 27.5927 174.985 26.8897C174.554 26.1867 173.861 25.6497 172.895 25.2689C171.93 24.8881 170.624 24.7026 168.988 24.7026C167.341 24.7026 166.035 24.8881 165.07 25.2592C164.104 25.6399 163.4 26.1769 162.969 26.8799C162.537 27.5829 162.321 28.4324 162.321 29.4087V35.0521C162.321 36.0382 162.526 36.8877 162.946 37.62C163.366 38.3425 164.07 38.9088 165.047 39.2993ZM171.021 37.9031C170.556 38.1277 169.874 38.2448 168.977 38.2448C168.08 38.2448 167.387 38.1277 166.921 37.9031C166.455 37.6785 166.137 37.3563 165.978 36.9463C165.819 36.5362 165.74 36.0578 165.74 35.5012V28.9694C165.74 28.4128 165.819 27.9442 165.978 27.5439C166.137 27.1436 166.455 26.8409 166.921 26.6261C167.387 26.4113 168.08 26.3039 168.977 26.3039C169.886 26.3039 170.556 26.4113 171.021 26.6261C171.487 26.8409 171.794 27.1436 171.953 27.5439C172.112 27.9442 172.191 28.4128 172.191 28.9694V35.5012C172.191 36.0578 172.112 36.5362 171.953 36.9463C171.794 37.3563 171.487 37.6785 171.021 37.9031ZM178.368 39.719V24.8197H183.956C185.058 24.8197 186.012 24.8978 186.818 25.0443C187.625 25.1907 188.306 25.4153 188.84 25.7277C189.385 26.0304 189.783 26.4209 190.044 26.8993C190.305 27.368 190.43 27.9245 190.43 28.5689C190.43 29.184 190.305 29.7113 190.055 30.1604C189.805 30.6095 189.419 30.961 188.92 31.2149C188.408 31.4687 187.75 31.6347 186.955 31.7128C187.931 31.8495 188.726 32.0741 189.328 32.4061C189.93 32.7283 190.373 33.1481 190.669 33.6558C190.964 34.1635 191.1 34.7786 191.1 35.4816C191.1 36.1162 190.975 36.7021 190.737 37.2293C190.498 37.7565 190.123 38.2057 189.612 38.5767C189.101 38.9477 188.454 39.2309 187.659 39.4359C186.864 39.6409 185.932 39.7386 184.853 39.7386H178.368V39.719ZM181.764 38.2252H184.047C185.569 38.2252 186.58 38.0104 187.091 37.571C187.602 37.1317 187.852 36.4287 187.852 35.4621C187.852 34.8372 187.716 34.31 187.443 33.8901C187.17 33.4703 186.739 33.1481 186.148 32.9333C185.558 32.7185 184.763 32.6111 183.763 32.6111H181.753V38.2252H181.764ZM181.764 31.0294H183.774C184.74 31.0294 185.489 30.9513 186.023 30.7853C186.568 30.6193 186.943 30.3557 187.159 29.9847C187.375 29.6136 187.488 29.1352 187.488 28.5494C187.488 27.866 187.318 27.368 186.977 27.0556C186.637 26.7529 186.103 26.5576 185.387 26.4795C184.672 26.4014 183.729 26.3623 182.57 26.3623H181.764V31.0294ZM199.003 24.8197L193.835 39.719H197.016L198.185 35.9698H203.138L204.251 39.719H207.465L202.274 24.8197H199.003ZM202.695 34.4759H198.64L200.65 27.7586L202.695 34.4759Z" fill="black"/>
<path d="M58.3361 40.5276C53.1313 44.7723 44.124 51.7331 37.0748 63.1407C22.2436 41.1466 13.2237 43.6353 2.85198 26.7324C-4.3362 15.0089 7.9936 -2.43722 23.3932 1.94643C37.6053 5.98899 37.0874 15.5395 27.4358 26.7324C18.4285 37.1925 25.0987 52.63 39.5761 50.3813C52.2344 48.4106 54.9252 33.7816 42.5827 21.237C32.0721 10.5495 51.628 -10.156 68.3035 6.92383C76.9066 15.7417 75.2517 26.7324 58.3487 40.5276H58.3361Z" fill="#D60D0D"/>
<path d="M6.21255 23.5491C3.68595 20.5045 3.52172 14.8955 11.3542 10.3855C5.66933 17.2705 8.77705 19.0391 9.00444 22.5005C9.10551 24.0797 7.81694 25.4819 6.21255 23.5491Z" fill="white"/>
<path d="M67.2802 16.2345C69.8068 19.2917 69.971 24.8881 62.1385 29.3981C67.8234 22.5131 64.7157 20.7445 64.4883 17.283C64.3872 15.7039 65.6758 14.3016 67.2802 16.2345Z" fill="white"/>
<path d="M34.7757 48.1579C31.7312 48.2842 28.2318 45.7702 29.1288 38.8853C30.6953 45.5681 33.2219 44.4943 35.4327 45.9597C36.4433 46.6293 36.696 48.0694 34.7757 48.1452V48.1579Z" fill="#D60D0D"/>
<path fill-rule="evenodd" clip-rule="evenodd" d="M82.9402 19.421V17.478H84.0533C84.3941 17.3022 84.7234 17.0972 85.0642 16.8531C85.3936 16.609 85.7002 16.2868 85.9955 15.8865C86.2908 15.4862 86.5521 14.9687 86.7906 14.3439C87.0291 13.7092 87.2449 12.9184 87.438 11.9615C87.6311 11.0047 87.7787 9.84281 87.8696 8.48566L88.2558 4.07249H98.4325V17.4878H100.772V19.4307H97.8873H85.8252H82.9402V19.421ZM87.1995 17.478H95.0592V5.61514H91.1293L90.8908 8.98361C90.8113 10.3115 90.6864 11.4245 90.516 12.3228C90.3456 13.221 90.1412 13.9631 89.914 14.5489C89.6869 15.1347 89.4256 15.6034 89.1303 15.9646C88.835 16.3259 88.5284 16.6188 88.199 16.8336C87.8696 17.0582 87.5289 17.273 87.1881 17.478H87.1995ZM109.529 19.1378C107.894 19.1378 106.576 18.9425 105.599 18.552C104.623 18.1614 103.918 17.5952 103.498 16.8726C103.078 16.1404 102.862 15.2909 102.862 14.3048V8.66141C102.862 7.68504 103.078 6.8356 103.509 6.13262C103.941 5.42963 104.645 4.88287 105.611 4.51185C106.576 4.14083 107.882 3.95532 109.529 3.95532C111.165 3.95532 112.471 4.14083 113.436 4.52161C114.402 4.9024 115.095 5.4394 115.526 6.14238C115.958 6.84537 116.174 7.68504 116.174 8.66141V14.3243C116.174 15.2909 115.958 16.1404 115.526 16.8629C115.095 17.5854 114.402 18.1517 113.436 18.5422C112.471 18.9425 111.176 19.1378 109.529 19.1378ZM109.529 17.4975C110.426 17.4975 111.108 17.3804 111.574 17.1558C112.039 16.9312 112.346 16.609 112.505 16.1989C112.664 15.7889 112.744 15.3105 112.744 14.7539V8.22204C112.744 7.66551 112.664 7.19686 112.505 6.79655C112.346 6.39624 112.039 6.09356 111.574 5.87876C111.108 5.66396 110.438 5.55656 109.529 5.55656C108.632 5.55656 107.939 5.66396 107.473 5.87876C107.008 6.09356 106.69 6.39624 106.531 6.79655C106.372 7.19686 106.292 7.67528 106.292 8.22204V14.7539C106.292 15.3105 106.372 15.7889 106.531 16.1989C106.69 16.609 107.008 16.9312 107.473 17.1558C107.939 17.3804 108.632 17.4975 109.529 17.4975ZM119.49 18.9718V4.07249H122.886V10.6922H124.147L128.497 4.07249H131.893L127.089 11.1511L132.495 18.9718H129.099L124.181 11.7077H122.886V18.9718H119.49ZM137.413 18.9718V5.61514H133.301V4.07249H144.796V5.61514H140.809V18.9718H137.413ZM153.348 19.1378C151.713 19.1378 150.395 18.9425 149.418 18.552C148.442 18.1614 147.737 17.5952 147.317 16.8726C146.897 16.1404 146.681 15.2909 146.681 14.3048V8.66141C146.681 7.68504 146.897 6.8356 147.328 6.13262C147.76 5.42963 148.464 4.88287 149.43 4.51185C150.395 4.14083 151.701 3.95532 153.348 3.95532C154.984 3.95532 156.29 4.14083 157.255 4.52161C158.221 4.9024 158.914 5.4394 159.345 6.14238C159.777 6.84537 159.993 7.68504 159.993 8.66141V14.3243C159.993 15.2909 159.777 16.1404 159.345 16.8629C158.914 17.5854 158.221 18.1517 157.255 18.5422C156.29 18.9425 154.995 19.1378 153.348 19.1378ZM153.348 17.4975C154.245 17.4975 154.927 17.3804 155.393 17.1558C155.858 16.9312 156.165 16.609 156.324 16.1989C156.483 15.7889 156.562 15.3105 156.562 14.7539V8.22204C156.562 7.66551 156.483 7.19686 156.324 6.79655C156.165 6.39624 155.858 6.09356 155.393 5.87876C154.927 5.66396 154.257 5.55656 153.348 5.55656C152.451 5.55656 151.758 5.66396 151.292 5.87876C150.827 6.09356 150.509 6.39624 150.35 6.79655C150.191 7.19686 150.111 7.67528 150.111 8.22204V14.7539C150.111 15.3105 150.191 15.7889 150.35 16.1989C150.509 16.609 150.827 16.9312 151.292 17.1558C151.758 17.3804 152.451 17.4975 153.348 17.4975ZM163.309 18.9718V4.07249H169.34C170.805 4.07249 171.964 4.23847 172.838 4.56067C173.713 4.88287 174.349 5.35153 174.747 5.96664C175.144 6.58175 175.349 7.32378 175.349 8.19275C175.349 8.97384 175.121 9.6573 174.678 10.2334C174.224 10.8094 173.565 11.2585 172.679 11.571C171.794 11.8834 170.703 12.0396 169.374 12.0396H166.705V18.9718H163.309ZM166.705 10.5458H168.261C169.238 10.5458 170.01 10.4774 170.567 10.3408C171.123 10.2041 171.532 9.96974 171.771 9.62801C172.009 9.28628 172.134 8.81762 172.134 8.20251C172.134 7.48977 172.055 6.943 171.884 6.56222C171.714 6.18144 171.362 5.91782 170.817 5.77136C170.272 5.62491 169.431 5.5468 168.295 5.5468H166.705V10.536V10.5458Z" fill="black"/>
<path fill-rule="evenodd" clip-rule="evenodd" d="M86.7668 56.6405C86.2257 57.1095 85.9611 57.819 85.9611 58.793C85.9611 59.6829 86.1776 60.3564 86.6346 60.8254C87.0915 61.3064 87.6808 61.5349 88.4143 61.5349C88.8713 61.5349 89.2922 61.4266 89.677 61.2102C90.0739 60.9937 90.3625 60.6931 90.5669 60.3083C90.7714 59.9234 90.8676 59.3943 90.8676 58.7209C90.8676 57.8911 90.6391 57.2417 90.1821 56.7727C89.7251 56.3037 89.1359 56.0632 88.4143 56.0632C87.765 56.0632 87.2118 56.2556 86.7668 56.6405ZM87.32 60.2962C87.0194 59.9715 86.8751 59.4665 86.8751 58.793C86.8751 58.1196 87.0314 57.6266 87.32 57.2898C87.6086 56.9652 87.9814 56.7968 88.4264 56.7968C88.8713 56.7968 89.2321 56.9652 89.5327 57.3019C89.8334 57.6266 89.9777 58.1196 89.9777 58.769C89.9777 59.4544 89.8213 59.9595 89.5327 60.2962C89.2321 60.633 88.8713 60.8013 88.4264 60.8013C87.9814 60.8013 87.6206 60.633 87.32 60.2962ZM82.1484 56.1717H81.2706V61.4148H82.1605V58.9856C82.3649 58.9856 82.5333 59.0337 82.6776 59.142C82.8219 59.2502 82.9902 59.4667 83.1826 59.7914L84.1447 61.4148H85.1188L84.1447 59.7914C83.7719 59.1781 83.3991 58.8293 83.0143 58.7211C83.2428 58.6128 83.4232 58.4926 83.5314 58.3603C83.6516 58.228 83.7719 57.9995 83.9042 57.6508C84.0365 57.29 84.1447 57.0736 84.2168 57.0014C84.277 56.9293 84.4333 56.8932 84.6618 56.8932H84.9143V56.1596H84.7339C84.4213 56.1596 84.1928 56.1837 84.0485 56.2318C83.9042 56.2799 83.7839 56.3641 83.6757 56.4963C83.5675 56.6286 83.4352 56.9052 83.2548 57.3141C83.0263 57.8432 82.8579 58.1559 82.7497 58.2641C82.6295 58.3844 82.4371 58.4325 82.1484 58.4325V56.1717ZM92.4064 56.1712H93.2963V58.3478H95.7616V56.1712H96.6514V61.4143H95.7616V59.0934H93.2963V61.4143H92.4064V56.1712ZM102.761 59.6113L101.895 59.4911L101.907 59.5272C101.847 59.9721 101.69 60.2968 101.462 60.5133C101.221 60.7297 100.933 60.8379 100.584 60.8379C100.151 60.8379 99.8023 60.6696 99.5257 60.3569C99.2491 60.0322 99.1168 59.5272 99.1168 58.8176C99.1168 58.1202 99.2611 57.6151 99.5377 57.2904C99.8143 56.9657 100.187 56.8094 100.632 56.8094C100.933 56.8094 101.185 56.8935 101.39 57.0739C101.594 57.2543 101.738 57.5189 101.823 57.8676L102.676 57.7353C102.568 57.2062 102.34 56.7973 101.979 56.5087C101.618 56.2201 101.149 56.0758 100.584 56.0758C100.127 56.0758 99.7181 56.172 99.3333 56.3885C98.9485 56.5929 98.6719 56.9176 98.4795 57.3385C98.2991 57.7594 98.2029 58.2524 98.2029 58.8176C98.2029 59.6835 98.4193 60.3569 98.8523 60.8259C99.2972 61.2949 99.8624 61.5234 100.584 61.5234C101.149 61.5234 101.63 61.355 102.027 61.0183C102.424 60.6816 102.664 60.2126 102.761 59.6113ZM103.975 63.4352L103.879 62.6174C104.071 62.6655 104.239 62.7016 104.384 62.7016C104.588 62.7016 104.744 62.6655 104.865 62.6054C104.985 62.5453 105.081 62.4491 105.153 62.3288C105.209 62.2511 105.285 62.0506 105.4 61.7462L105.4 61.7461L105.4 61.746L105.4 61.7459L105.43 61.6674C105.437 61.6394 105.452 61.6034 105.471 61.5592L105.471 61.5592L105.471 61.5591L105.471 61.5588C105.484 61.527 105.499 61.4911 105.514 61.4509L103.518 56.1837H104.468L105.562 59.2142C105.707 59.599 105.827 59.9958 105.947 60.4288C106.055 60.0319 106.176 59.6351 106.308 59.2503L107.426 56.1958H108.316L106.332 61.5351C106.115 62.1123 105.947 62.5092 105.827 62.7257C105.67 63.0143 105.49 63.2307 105.286 63.363C105.081 63.4953 104.841 63.5674 104.552 63.5674C104.384 63.5674 104.191 63.5314 103.975 63.4592V63.4352ZM113.896 56.1716H109.759L109.747 56.1476V59.6109C109.747 60.0679 109.735 60.3325 109.711 60.4167C109.687 60.5008 109.639 60.561 109.555 60.597C109.471 60.6331 109.338 60.6572 109.158 60.6572H108.773V61.4028C109.05 61.4268 109.29 61.4388 109.495 61.4388C109.832 61.4388 110.084 61.3667 110.264 61.2224C110.445 61.0781 110.553 60.9097 110.589 60.7173C110.625 60.5249 110.649 60.1281 110.649 59.5147V56.9052H113.006V61.4148H113.896V56.1716ZM115.7 56.1712H116.59V58.2275H117.72C118.454 58.2275 119.019 58.3718 119.416 58.6484C119.813 58.937 120.005 59.3219 120.005 59.8269C120.005 60.2599 119.837 60.6447 119.512 60.9453C119.187 61.258 118.658 61.4143 117.925 61.4143H115.7V56.1712ZM116.59 60.6928H117.528C118.093 60.6928 118.49 60.6206 118.73 60.4883C118.971 60.3561 119.091 60.1396 119.091 59.839C119.091 59.6105 119.007 59.406 118.827 59.2257C118.646 59.0453 118.249 58.9611 117.636 58.9611H116.578V60.6928H116.59ZM124.455 56.1712H120.21V56.9047H121.893V61.4143H122.783V56.9047H124.455V56.1712ZM129.109 60.7538C128.784 61.0304 128.459 61.2348 128.159 61.343C127.858 61.4633 127.521 61.5114 127.173 61.5114C126.595 61.5114 126.15 61.3671 125.838 61.0905C125.525 60.8139 125.369 60.4531 125.369 60.0202C125.369 59.7677 125.429 59.5272 125.549 59.3227C125.669 59.1063 125.826 58.9379 126.006 58.8176C126.198 58.6854 126.403 58.5892 126.643 58.529C126.821 58.4818 127.079 58.4461 127.419 58.3992L127.437 58.3967C128.159 58.3126 128.688 58.2043 129.024 58.0961V57.8676C129.024 57.5069 128.94 57.2543 128.772 57.11C128.543 56.9056 128.207 56.8094 127.762 56.8094C127.341 56.8094 127.028 56.8815 126.836 57.0258C126.631 57.1701 126.487 57.4347 126.391 57.8075L125.525 57.6872C125.609 57.3144 125.729 57.0138 125.922 56.7853C126.102 56.5568 126.367 56.3764 126.716 56.2562C127.052 56.1359 127.461 56.0758 127.906 56.0758C128.351 56.0758 128.724 56.1239 129 56.2321C129.277 56.3404 129.493 56.4727 129.614 56.629C129.746 56.7853 129.842 56.9898 129.89 57.2303C129.914 57.3866 129.938 57.6512 129.938 58.048V59.2265C129.938 60.0563 129.962 60.5734 129.999 60.7898C130.035 61.0063 130.107 61.2228 130.215 61.4272H129.289C129.205 61.2348 129.145 61.0183 129.121 60.7658L129.109 60.7538ZM129.037 58.7816C128.712 58.9138 128.231 59.0221 127.581 59.1183C127.209 59.1664 126.956 59.2265 126.8 59.2987C126.643 59.3588 126.535 59.455 126.451 59.5873C126.367 59.7196 126.331 59.8518 126.331 60.0082C126.331 60.2367 126.415 60.4411 126.595 60.5974C126.776 60.7538 127.04 60.8379 127.389 60.8379C127.726 60.8379 128.038 60.7658 128.303 60.6095C128.568 60.4651 128.772 60.2607 128.892 59.9961C128.988 59.7917 129.037 59.5031 129.037 59.1063V58.7816ZM132.692 56.1712H131.802V61.4143H135.891V62.9055H136.625V60.6808H136.047V56.1712H135.157V60.6808H132.692V56.1712ZM138.068 56.1712H138.958V60.1637L141.423 56.1712H142.385V61.4143H141.495V57.4338L139.03 61.4143H138.068V56.1712ZM145.091 56.1712H144.201V61.4143H145.163L147.628 57.4338V61.4143H148.518V56.1712H147.556L145.091 60.1637V56.1712ZM153.148 56.1712H156.166V56.9047H154.038V61.4143H153.148V56.1712ZM160.687 59.7205L160.676 59.719H160.688L160.687 59.7205ZM160.135 60.5488C160.363 60.3806 160.543 60.1045 160.687 59.7205L161.602 59.8393C161.457 60.3684 161.193 60.7893 160.796 61.0899C160.399 61.3906 159.906 61.5349 159.293 61.5349C158.523 61.5349 157.922 61.2944 157.477 60.8254C157.032 60.3564 156.803 59.695 156.803 58.8411C156.803 57.9633 157.032 57.2778 157.477 56.7968C157.934 56.3158 158.523 56.0632 159.245 56.0632C159.942 56.0632 160.519 56.3037 160.964 56.7727C161.409 57.2538 161.626 57.9152 161.626 58.781V59.0215H157.717C157.753 59.5988 157.91 60.0317 158.21 60.3443C158.499 60.645 158.872 60.8013 159.305 60.8013C159.629 60.8013 159.906 60.7171 160.135 60.5488ZM160.688 58.288H157.765L157.778 58.2759C157.802 57.819 157.958 57.4582 158.234 57.1816C158.511 56.905 158.848 56.7727 159.257 56.7727C159.702 56.7727 160.074 56.9531 160.351 57.2898C160.531 57.5183 160.652 57.843 160.688 58.288ZM163.225 56.1712H164.596L165.991 60.3681L167.518 56.1712H168.793V61.4143H167.903V57.1933L166.351 61.4143H165.558L164.103 56.9889V61.4143H163.225V56.1712ZM173.11 61.343C173.411 61.2348 173.735 61.0304 174.06 60.7538L174.072 60.7658C174.096 61.0183 174.156 61.2348 174.24 61.4272H175.166C175.058 61.2228 174.986 61.0063 174.95 60.7898C174.914 60.5734 174.89 60.0563 174.89 59.2265V58.048C174.89 57.6512 174.866 57.3866 174.842 57.2303C174.793 56.9898 174.697 56.7853 174.565 56.629C174.445 56.4727 174.228 56.3404 173.952 56.2321C173.675 56.1239 173.302 56.0758 172.857 56.0758C172.412 56.0758 172.004 56.1359 171.667 56.2562C171.318 56.3764 171.054 56.5568 170.873 56.7853C170.681 57.0138 170.56 57.3144 170.476 57.6872L171.342 57.8075C171.438 57.4347 171.583 57.1701 171.787 57.0258C171.979 56.8815 172.292 56.8094 172.713 56.8094C173.158 56.8094 173.495 56.9056 173.723 57.11C173.892 57.2543 173.976 57.5069 173.976 57.8676V58.0961C173.639 58.2043 173.11 58.3126 172.388 58.3967L172.37 58.3992C172.03 58.4461 171.772 58.4818 171.595 58.529C171.354 58.5892 171.15 58.6854 170.957 58.8176C170.777 58.9379 170.621 59.1063 170.5 59.3227C170.38 59.5272 170.32 59.7677 170.32 60.0202C170.32 60.4531 170.476 60.8139 170.789 61.0905C171.102 61.3671 171.547 61.5114 172.124 61.5114C172.473 61.5114 172.809 61.4633 173.11 61.343ZM172.533 59.1183C173.182 59.0221 173.663 58.9138 173.988 58.7816V59.1063C173.988 59.5031 173.94 59.7917 173.843 59.9961C173.723 60.2607 173.519 60.4651 173.254 60.6095C172.99 60.7658 172.677 60.8379 172.34 60.8379C171.992 60.8379 171.727 60.7538 171.547 60.5974C171.366 60.4411 171.282 60.2367 171.282 60.0082C171.282 59.8518 171.318 59.7196 171.402 59.5873C171.486 59.455 171.595 59.3588 171.751 59.2987C171.907 59.2265 172.16 59.1664 172.533 59.1183ZM176.057 56.1712H180.302V56.9047H178.63V61.4143H177.74V56.9047H176.057V56.1712ZM181.997 56.6405C181.456 57.1095 181.191 57.819 181.191 58.793C181.191 59.6829 181.408 60.3564 181.865 60.8254C182.322 61.3064 182.911 61.5349 183.645 61.5349C184.102 61.5349 184.522 61.4266 184.907 61.2102C185.304 60.9937 185.593 60.6931 185.797 60.3083C186.002 59.9234 186.098 59.3943 186.098 58.7209C186.098 57.8911 185.869 57.2417 185.412 56.7727C184.955 56.3037 184.366 56.0632 183.645 56.0632C182.995 56.0632 182.442 56.2556 181.997 56.6405ZM182.55 60.2962C182.25 59.9715 182.105 59.4665 182.105 58.793C182.105 58.1196 182.262 57.6266 182.55 57.2898C182.839 56.9652 183.212 56.7968 183.657 56.7968C184.102 56.7968 184.462 56.9652 184.763 57.3019C185.064 57.6266 185.208 58.1196 185.208 58.769C185.208 59.4544 185.052 59.9595 184.763 60.2962C184.462 60.633 184.102 60.8013 183.657 60.8013C183.212 60.8013 182.851 60.633 182.55 60.2962ZM187.841 56.1716H191.978V61.4148H191.088V56.9052H188.731V59.5147C188.731 60.1281 188.707 60.5249 188.671 60.7173C188.635 60.9097 188.527 61.0781 188.347 61.2224C188.166 61.3667 187.914 61.4388 187.577 61.4388C187.372 61.4388 187.132 61.4268 186.855 61.4028V60.6572H187.24C187.421 60.6572 187.553 60.6331 187.637 60.597C187.721 60.561 187.769 60.5008 187.793 60.4167C187.817 60.3325 187.829 60.0679 187.829 59.6109V56.1476L187.841 56.1716ZM194.383 56.6405C193.842 57.1095 193.578 57.819 193.578 58.793C193.578 59.6829 193.794 60.3564 194.251 60.8254C194.708 61.3064 195.297 61.5349 196.031 61.5349C196.488 61.5349 196.909 61.4266 197.294 61.2102C197.69 60.9937 197.979 60.6931 198.183 60.3083C198.388 59.9234 198.484 59.3943 198.484 58.7209C198.484 57.8911 198.256 57.2417 197.799 56.7727C197.342 56.3037 196.752 56.0632 196.031 56.0632C195.382 56.0632 194.828 56.2556 194.383 56.6405ZM194.937 60.2962C194.636 59.9715 194.492 59.4665 194.492 58.793C194.492 58.1196 194.648 57.6266 194.937 57.2898C195.225 56.9652 195.598 56.7968 196.043 56.7968C196.488 56.7968 196.849 56.9652 197.149 57.3019C197.45 57.6266 197.594 58.1196 197.594 58.769C197.594 59.4544 197.438 59.9595 197.149 60.2962C196.849 60.633 196.488 60.8013 196.043 60.8013C195.598 60.8013 195.237 60.633 194.937 60.2962ZM200.023 56.1712H203.042V56.9047H200.913V61.4143H200.023V56.1712ZM206.445 61.343C206.746 61.2348 207.07 61.0304 207.395 60.7538L207.407 60.7658C207.431 61.0183 207.491 61.2348 207.575 61.4272H208.501C208.393 61.2228 208.321 61.0063 208.285 60.7898C208.249 60.5734 208.225 60.0563 208.225 59.2265V58.048C208.225 57.6512 208.201 57.3866 208.177 57.2303C208.129 56.9898 208.032 56.7853 207.9 56.629C207.78 56.4727 207.563 56.3404 207.287 56.2321C207.01 56.1239 206.637 56.0758 206.192 56.0758C205.747 56.0758 205.339 56.1359 205.002 56.2562C204.653 56.3764 204.389 56.5568 204.208 56.7853C204.016 57.0138 203.895 57.3144 203.811 57.6872L204.677 57.8075C204.773 57.4347 204.918 57.1701 205.122 57.0258C205.315 56.8815 205.627 56.8094 206.048 56.8094C206.493 56.8094 206.83 56.9056 207.058 57.11C207.227 57.2543 207.311 57.5069 207.311 57.8676V58.0961C206.974 58.2043 206.445 58.3126 205.723 58.3967L205.705 58.3992C205.366 58.4461 205.107 58.4818 204.93 58.529C204.689 58.5892 204.485 58.6854 204.292 58.8176C204.112 58.9379 203.956 59.1063 203.835 59.3227C203.715 59.5272 203.655 59.7677 203.655 60.0202C203.655 60.4531 203.811 60.8139 204.124 61.0905C204.437 61.3671 204.882 61.5114 205.459 61.5114C205.808 61.5114 206.144 61.4633 206.445 61.343ZM205.868 59.1183C206.517 59.0221 206.998 58.9138 207.323 58.7816V59.1063C207.323 59.5031 207.275 59.7917 207.178 59.9961C207.058 60.2607 206.854 60.4651 206.589 60.6095C206.325 60.7658 206.012 60.8379 205.675 60.8379C205.327 60.8379 205.062 60.7538 204.882 60.5974C204.701 60.4411 204.617 60.2367 204.617 60.0082C204.617 59.8518 204.653 59.7196 204.737 59.5873C204.821 59.455 204.93 59.3588 205.086 59.2987C205.242 59.2265 205.495 59.1664 205.868 59.1183Z" fill="black"/>
<rect x="81.2705" y="48.125" width="128.844" height="1.31276" fill="#D60D0D"/>
</svg>
